M48
; DRILL file {KiCad 8.0.8-8.0.8-0~ubuntu22.04.1} date 2025-02-03T18:00:55-0500
; FORMAT={-:-/ absolute / metric / decimal}
; #@! TF.CreationDate,2025-02-03T18:00:55-05:00
; #@! TF.GenerationSoftware,Kicad,Pcbnew,8.0.8-8.0.8-0~ubuntu22.04.1
; #@! TF.FileFunction,Plated,1,4,PTH
FMAT,2
METRIC
; #@! TA.AperFunction,Plated,PTH,ViaDrill
T1C0.400
; #@! TA.AperFunction,Plated,PTH,ComponentDrill
T2C0.800
%
G90
G05
T1
X101.0Y-126.0
X104.139Y-126.243
X105.359Y-78.384
X106.477Y-73.355
X106.629Y-126.746
X107.798Y-76.403
X108.306Y-126.644
X108.966Y-74.676
X110.134Y-126.898
X112.116Y-126.746
X114.91Y-126.848
X116.535Y-73.203
X116.535Y-126.848
X117.754Y-126.848
X119.024Y-73.203
X119.228Y-114.706
X121.93Y-118.506
X124.104Y-73.406
X124.46Y-121.92
X126.086Y-73.203
X126.756Y-125.313
X127.508Y-126.594
X128.93Y-72.847
X129.794Y-112.217
X131.674Y-72.949
X136.957Y-73.05
X139.344Y-72.441
T2
X96.825Y-108.63
X96.825Y-111.13
X98.958Y-98.45
X98.958Y-106.07
X101.498Y-98.45
X101.498Y-106.07
X104.038Y-98.45
X104.038Y-106.07
X106.578Y-98.45
X106.578Y-106.07
X109.118Y-98.45
X109.118Y-106.07
X111.658Y-98.45
X111.658Y-106.07
X114.198Y-98.45
X114.198Y-106.07
X116.738Y-98.45
X116.738Y-106.07
X119.278Y-98.45
X119.278Y-106.07
X121.818Y-98.45
X121.818Y-106.07
X124.917Y-115.722
X125.019Y-96.672
X125.019Y-99.212
X125.019Y-101.752
X125.019Y-104.292
X125.019Y-106.832
X125.019Y-109.372
X125.019Y-111.912
X127.417Y-115.722
X132.639Y-96.672
X132.639Y-99.212
X132.639Y-101.752
X132.639Y-104.292
X132.639Y-106.832
X132.639Y-109.372
X132.639Y-111.912
X137.048Y-93.828
X139.548Y-93.828
M30
