%TF.GenerationSoftware,KiCad,Pcbnew,8.0.8-8.0.8-0~ubuntu22.04.1*%
%TF.CreationDate,2025-02-03T17:59:30-05:00*%
%TF.ProjectId,2600cart,32363030-6361-4727-942e-6b696361645f,rev?*%
%TF.SameCoordinates,Original*%
%TF.FileFunction,Legend,Top*%
%TF.FilePolarity,Positive*%
%FSLAX46Y46*%
G04 Gerber Fmt 4.6, Leading zero omitted, Abs format (unit mm)*
G04 Created by KiCad (PCBNEW 8.0.8-8.0.8-0~ubuntu22.04.1) date 2025-02-03 17:59:30*
%MOMM*%
%LPD*%
G01*
G04 APERTURE LIST*
G04 Aperture macros list*
%AMRoundRect*
0 Rectangle with rounded corners*
0 $1 Rounding radius*
0 $2 $3 $4 $5 $6 $7 $8 $9 X,Y pos of 4 corners*
0 Add a 4 corners polygon primitive as box body*
4,1,4,$2,$3,$4,$5,$6,$7,$8,$9,$2,$3,0*
0 Add four circle primitives for the rounded corners*
1,1,$1+$1,$2,$3*
1,1,$1+$1,$4,$5*
1,1,$1+$1,$6,$7*
1,1,$1+$1,$8,$9*
0 Add four rect primitives between the rounded corners*
20,1,$1+$1,$2,$3,$4,$5,0*
20,1,$1+$1,$4,$5,$6,$7,0*
20,1,$1+$1,$6,$7,$8,$9,0*
20,1,$1+$1,$8,$9,$2,$3,0*%
%AMFreePoly0*
4,1,54,0.822393,0.998742,1.000410,0.978684,1.044073,0.968719,1.213163,0.909552,1.253513,0.890120,1.405198,0.794810,1.440213,0.766886,1.566886,0.640213,1.594810,0.605198,1.690120,0.453513,1.709552,0.413163,1.768719,0.244073,1.778684,0.200410,1.798742,0.022393,1.798742,-0.022393,1.778684,-0.200410,1.768719,-0.244073,1.709552,-0.413163,1.690120,-0.453513,1.594810,-0.605198,
1.566886,-0.640213,1.440213,-0.766886,1.405198,-0.794810,1.253513,-0.890120,1.213163,-0.909552,1.044073,-0.968719,1.000410,-0.978684,0.822393,-0.998742,0.800000,-1.000000,-1.400000,-1.000000,-1.421968,-0.994986,-1.444504,-0.994986,-1.531281,-0.975180,-1.531282,-0.975179,-1.611476,-0.936559,-1.681064,-0.881065,-1.736560,-0.811476,-1.775179,-0.731282,-1.775180,-0.731281,-1.794986,-0.644504,
-1.800000,-0.600000,-1.800000,0.600000,-1.794986,0.644504,-1.775180,0.731281,-1.736561,0.811474,-1.736560,0.811476,-1.681064,0.881065,-1.611476,0.936559,-1.531282,0.975179,-1.444505,0.994986,-1.429511,0.994986,-1.400000,1.000000,0.800000,1.000000,0.822393,0.998742,0.822393,0.998742,$1*%
%AMFreePoly1*
4,1,54,1.421968,0.994986,1.444504,0.994986,1.531281,0.975180,1.531282,0.975179,1.611476,0.936559,1.681064,0.881065,1.736560,0.811476,1.775179,0.731282,1.775180,0.731281,1.794986,0.644504,1.800000,0.600000,1.800000,-0.600000,1.794986,-0.644504,1.775180,-0.731281,1.736561,-0.811474,1.736560,-0.811476,1.681064,-0.881065,1.611476,-0.936559,1.531282,-0.975179,1.444505,-0.994986,
1.429511,-0.994986,1.400000,-1.000000,-0.800000,-1.000000,-0.822393,-0.998742,-1.000410,-0.978684,-1.044073,-0.968719,-1.213163,-0.909552,-1.253513,-0.890120,-1.405198,-0.794810,-1.440213,-0.766886,-1.566886,-0.640213,-1.594810,-0.605198,-1.690120,-0.453513,-1.709552,-0.413163,-1.768719,-0.244073,-1.778684,-0.200410,-1.798742,-0.022393,-1.798742,0.022393,-1.778684,0.200410,-1.768719,0.244073,
-1.709552,0.413163,-1.690120,0.453513,-1.594810,0.605198,-1.566886,0.640213,-1.440213,0.766886,-1.405198,0.794810,-1.253513,0.890120,-1.213163,0.909552,-1.044073,0.968719,-1.000410,0.978684,-0.822393,0.998742,-0.800000,1.000000,1.400000,1.000000,1.421968,0.994986,1.421968,0.994986,$1*%
%AMFreePoly2*
4,1,54,1.622393,0.998742,1.800410,0.978684,1.844073,0.968719,2.013163,0.909552,2.053513,0.890120,2.205198,0.794810,2.240213,0.766886,2.366886,0.640213,2.394810,0.605198,2.490120,0.453513,2.509552,0.413163,2.568719,0.244073,2.578684,0.200410,2.598742,0.022393,2.598742,-0.022393,2.578684,-0.200410,2.568719,-0.244073,2.509552,-0.413163,2.490120,-0.453513,2.394810,-0.605198,
2.366886,-0.640213,2.240213,-0.766886,2.205198,-0.794810,2.053513,-0.890120,2.013163,-0.909552,1.844073,-0.968719,1.800410,-0.978684,1.622393,-0.998742,1.600000,-1.000000,-0.600000,-1.000000,-0.621968,-0.994986,-0.644504,-0.994986,-0.731281,-0.975180,-0.731282,-0.975179,-0.811476,-0.936559,-0.881064,-0.881065,-0.936560,-0.811476,-0.975179,-0.731282,-0.975180,-0.731281,-0.994986,-0.644504,
-1.000000,-0.600000,-1.000000,0.600000,-0.994986,0.644504,-0.975180,0.731281,-0.936561,0.811474,-0.936560,0.811476,-0.881064,0.881065,-0.811476,0.936559,-0.731282,0.975179,-0.644505,0.994986,-0.629511,0.994986,-0.600000,1.000000,1.600000,1.000000,1.622393,0.998742,1.622393,0.998742,$1*%
G04 Aperture macros list end*
%ADD10C,0.150000*%
%ADD11C,0.250000*%
%ADD12C,0.200000*%
%ADD13C,0.120000*%
%ADD14RoundRect,0.200000X-0.762000X-2.286000X0.762000X-2.286000X0.762000X2.286000X-0.762000X2.286000X0*%
%ADD15C,2.000000*%
%ADD16C,2.200000*%
%ADD17C,1.850000*%
%ADD18FreePoly0,270.000000*%
%ADD19RoundRect,1.000000X-0.000010X0.800000X-0.000010X-0.800000X0.000010X-0.800000X0.000010X0.800000X0*%
%ADD20FreePoly1,270.000000*%
%ADD21RoundRect,1.000000X-0.800000X-0.000010X0.800000X-0.000010X0.800000X0.000010X-0.800000X0.000010X0*%
%ADD22FreePoly2,180.000000*%
%ADD23RoundRect,0.200000X0.800000X0.800000X-0.800000X0.800000X-0.800000X-0.800000X0.800000X-0.800000X0*%
%ADD24O,2.000000X2.000000*%
%ADD25RoundRect,0.200000X0.800000X-0.800000X0.800000X0.800000X-0.800000X0.800000X-0.800000X-0.800000X0*%
G04 APERTURE END LIST*
D10*
X100260379Y-122923075D02*
X100260379Y-121923075D01*
X100260379Y-121923075D02*
X100831807Y-122923075D01*
X100831807Y-122923075D02*
X100831807Y-121923075D01*
X101307998Y-122923075D02*
X101307998Y-122256408D01*
X101307998Y-121923075D02*
X101260379Y-121970694D01*
X101260379Y-121970694D02*
X101307998Y-122018313D01*
X101307998Y-122018313D02*
X101355617Y-121970694D01*
X101355617Y-121970694D02*
X101307998Y-121923075D01*
X101307998Y-121923075D02*
X101307998Y-122018313D01*
X102212759Y-122875456D02*
X102117521Y-122923075D01*
X102117521Y-122923075D02*
X101927045Y-122923075D01*
X101927045Y-122923075D02*
X101831807Y-122875456D01*
X101831807Y-122875456D02*
X101784188Y-122827836D01*
X101784188Y-122827836D02*
X101736569Y-122732598D01*
X101736569Y-122732598D02*
X101736569Y-122446884D01*
X101736569Y-122446884D02*
X101784188Y-122351646D01*
X101784188Y-122351646D02*
X101831807Y-122304027D01*
X101831807Y-122304027D02*
X101927045Y-122256408D01*
X101927045Y-122256408D02*
X102117521Y-122256408D01*
X102117521Y-122256408D02*
X102212759Y-122304027D01*
X102641331Y-122923075D02*
X102641331Y-121923075D01*
X102736569Y-122542122D02*
X103022283Y-122923075D01*
X103022283Y-122256408D02*
X102641331Y-122637360D01*
X104546093Y-122399265D02*
X104688950Y-122446884D01*
X104688950Y-122446884D02*
X104736569Y-122494503D01*
X104736569Y-122494503D02*
X104784188Y-122589741D01*
X104784188Y-122589741D02*
X104784188Y-122732598D01*
X104784188Y-122732598D02*
X104736569Y-122827836D01*
X104736569Y-122827836D02*
X104688950Y-122875456D01*
X104688950Y-122875456D02*
X104593712Y-122923075D01*
X104593712Y-122923075D02*
X104212760Y-122923075D01*
X104212760Y-122923075D02*
X104212760Y-121923075D01*
X104212760Y-121923075D02*
X104546093Y-121923075D01*
X104546093Y-121923075D02*
X104641331Y-121970694D01*
X104641331Y-121970694D02*
X104688950Y-122018313D01*
X104688950Y-122018313D02*
X104736569Y-122113551D01*
X104736569Y-122113551D02*
X104736569Y-122208789D01*
X104736569Y-122208789D02*
X104688950Y-122304027D01*
X104688950Y-122304027D02*
X104641331Y-122351646D01*
X104641331Y-122351646D02*
X104546093Y-122399265D01*
X104546093Y-122399265D02*
X104212760Y-122399265D01*
X105212760Y-122923075D02*
X105212760Y-122256408D01*
X105212760Y-121923075D02*
X105165141Y-121970694D01*
X105165141Y-121970694D02*
X105212760Y-122018313D01*
X105212760Y-122018313D02*
X105260379Y-121970694D01*
X105260379Y-121970694D02*
X105212760Y-121923075D01*
X105212760Y-121923075D02*
X105212760Y-122018313D01*
X105831807Y-122923075D02*
X105736569Y-122875456D01*
X105736569Y-122875456D02*
X105688950Y-122780217D01*
X105688950Y-122780217D02*
X105688950Y-121923075D01*
X106641331Y-122923075D02*
X106641331Y-121923075D01*
X106641331Y-122875456D02*
X106546093Y-122923075D01*
X106546093Y-122923075D02*
X106355617Y-122923075D01*
X106355617Y-122923075D02*
X106260379Y-122875456D01*
X106260379Y-122875456D02*
X106212760Y-122827836D01*
X106212760Y-122827836D02*
X106165141Y-122732598D01*
X106165141Y-122732598D02*
X106165141Y-122446884D01*
X106165141Y-122446884D02*
X106212760Y-122351646D01*
X106212760Y-122351646D02*
X106260379Y-122304027D01*
X106260379Y-122304027D02*
X106355617Y-122256408D01*
X106355617Y-122256408D02*
X106546093Y-122256408D01*
X106546093Y-122256408D02*
X106641331Y-122304027D01*
X100593712Y-124009209D02*
X100260379Y-124009209D01*
X100260379Y-124533019D02*
X100260379Y-123533019D01*
X100260379Y-123533019D02*
X100736569Y-123533019D01*
X101498474Y-124485400D02*
X101403236Y-124533019D01*
X101403236Y-124533019D02*
X101212760Y-124533019D01*
X101212760Y-124533019D02*
X101117522Y-124485400D01*
X101117522Y-124485400D02*
X101069903Y-124390161D01*
X101069903Y-124390161D02*
X101069903Y-124009209D01*
X101069903Y-124009209D02*
X101117522Y-123913971D01*
X101117522Y-123913971D02*
X101212760Y-123866352D01*
X101212760Y-123866352D02*
X101403236Y-123866352D01*
X101403236Y-123866352D02*
X101498474Y-123913971D01*
X101498474Y-123913971D02*
X101546093Y-124009209D01*
X101546093Y-124009209D02*
X101546093Y-124104447D01*
X101546093Y-124104447D02*
X101069903Y-124199685D01*
X101974665Y-124533019D02*
X101974665Y-123533019D01*
X101974665Y-123913971D02*
X102069903Y-123866352D01*
X102069903Y-123866352D02*
X102260379Y-123866352D01*
X102260379Y-123866352D02*
X102355617Y-123913971D01*
X102355617Y-123913971D02*
X102403236Y-123961590D01*
X102403236Y-123961590D02*
X102450855Y-124056828D01*
X102450855Y-124056828D02*
X102450855Y-124342542D01*
X102450855Y-124342542D02*
X102403236Y-124437780D01*
X102403236Y-124437780D02*
X102355617Y-124485400D01*
X102355617Y-124485400D02*
X102260379Y-124533019D01*
X102260379Y-124533019D02*
X102069903Y-124533019D01*
X102069903Y-124533019D02*
X101974665Y-124485400D01*
X102879427Y-124533019D02*
X102879427Y-123866352D01*
X102879427Y-124056828D02*
X102927046Y-123961590D01*
X102927046Y-123961590D02*
X102974665Y-123913971D01*
X102974665Y-123913971D02*
X103069903Y-123866352D01*
X103069903Y-123866352D02*
X103165141Y-123866352D01*
X103927046Y-123866352D02*
X103927046Y-124533019D01*
X103498475Y-123866352D02*
X103498475Y-124390161D01*
X103498475Y-124390161D02*
X103546094Y-124485400D01*
X103546094Y-124485400D02*
X103641332Y-124533019D01*
X103641332Y-124533019D02*
X103784189Y-124533019D01*
X103784189Y-124533019D02*
X103879427Y-124485400D01*
X103879427Y-124485400D02*
X103927046Y-124437780D01*
X104831808Y-124533019D02*
X104831808Y-124009209D01*
X104831808Y-124009209D02*
X104784189Y-123913971D01*
X104784189Y-123913971D02*
X104688951Y-123866352D01*
X104688951Y-123866352D02*
X104498475Y-123866352D01*
X104498475Y-123866352D02*
X104403237Y-123913971D01*
X104831808Y-124485400D02*
X104736570Y-124533019D01*
X104736570Y-124533019D02*
X104498475Y-124533019D01*
X104498475Y-124533019D02*
X104403237Y-124485400D01*
X104403237Y-124485400D02*
X104355618Y-124390161D01*
X104355618Y-124390161D02*
X104355618Y-124294923D01*
X104355618Y-124294923D02*
X104403237Y-124199685D01*
X104403237Y-124199685D02*
X104498475Y-124152066D01*
X104498475Y-124152066D02*
X104736570Y-124152066D01*
X104736570Y-124152066D02*
X104831808Y-124104447D01*
X105307999Y-124533019D02*
X105307999Y-123866352D01*
X105307999Y-124056828D02*
X105355618Y-123961590D01*
X105355618Y-123961590D02*
X105403237Y-123913971D01*
X105403237Y-123913971D02*
X105498475Y-123866352D01*
X105498475Y-123866352D02*
X105593713Y-123866352D01*
X105831809Y-123866352D02*
X106069904Y-124533019D01*
X106307999Y-123866352D02*
X106069904Y-124533019D01*
X106069904Y-124533019D02*
X105974666Y-124771114D01*
X105974666Y-124771114D02*
X105927047Y-124818733D01*
X105927047Y-124818733D02*
X105831809Y-124866352D01*
X107403238Y-123628257D02*
X107450857Y-123580638D01*
X107450857Y-123580638D02*
X107546095Y-123533019D01*
X107546095Y-123533019D02*
X107784190Y-123533019D01*
X107784190Y-123533019D02*
X107879428Y-123580638D01*
X107879428Y-123580638D02*
X107927047Y-123628257D01*
X107927047Y-123628257D02*
X107974666Y-123723495D01*
X107974666Y-123723495D02*
X107974666Y-123818733D01*
X107974666Y-123818733D02*
X107927047Y-123961590D01*
X107927047Y-123961590D02*
X107355619Y-124533019D01*
X107355619Y-124533019D02*
X107974666Y-124533019D01*
X108593714Y-123533019D02*
X108688952Y-123533019D01*
X108688952Y-123533019D02*
X108784190Y-123580638D01*
X108784190Y-123580638D02*
X108831809Y-123628257D01*
X108831809Y-123628257D02*
X108879428Y-123723495D01*
X108879428Y-123723495D02*
X108927047Y-123913971D01*
X108927047Y-123913971D02*
X108927047Y-124152066D01*
X108927047Y-124152066D02*
X108879428Y-124342542D01*
X108879428Y-124342542D02*
X108831809Y-124437780D01*
X108831809Y-124437780D02*
X108784190Y-124485400D01*
X108784190Y-124485400D02*
X108688952Y-124533019D01*
X108688952Y-124533019D02*
X108593714Y-124533019D01*
X108593714Y-124533019D02*
X108498476Y-124485400D01*
X108498476Y-124485400D02*
X108450857Y-124437780D01*
X108450857Y-124437780D02*
X108403238Y-124342542D01*
X108403238Y-124342542D02*
X108355619Y-124152066D01*
X108355619Y-124152066D02*
X108355619Y-123913971D01*
X108355619Y-123913971D02*
X108403238Y-123723495D01*
X108403238Y-123723495D02*
X108450857Y-123628257D01*
X108450857Y-123628257D02*
X108498476Y-123580638D01*
X108498476Y-123580638D02*
X108593714Y-123533019D01*
X109308000Y-123628257D02*
X109355619Y-123580638D01*
X109355619Y-123580638D02*
X109450857Y-123533019D01*
X109450857Y-123533019D02*
X109688952Y-123533019D01*
X109688952Y-123533019D02*
X109784190Y-123580638D01*
X109784190Y-123580638D02*
X109831809Y-123628257D01*
X109831809Y-123628257D02*
X109879428Y-123723495D01*
X109879428Y-123723495D02*
X109879428Y-123818733D01*
X109879428Y-123818733D02*
X109831809Y-123961590D01*
X109831809Y-123961590D02*
X109260381Y-124533019D01*
X109260381Y-124533019D02*
X109879428Y-124533019D01*
X110784190Y-123533019D02*
X110308000Y-123533019D01*
X110308000Y-123533019D02*
X110260381Y-124009209D01*
X110260381Y-124009209D02*
X110308000Y-123961590D01*
X110308000Y-123961590D02*
X110403238Y-123913971D01*
X110403238Y-123913971D02*
X110641333Y-123913971D01*
X110641333Y-123913971D02*
X110736571Y-123961590D01*
X110736571Y-123961590D02*
X110784190Y-124009209D01*
X110784190Y-124009209D02*
X110831809Y-124104447D01*
X110831809Y-124104447D02*
X110831809Y-124342542D01*
X110831809Y-124342542D02*
X110784190Y-124437780D01*
X110784190Y-124437780D02*
X110736571Y-124485400D01*
X110736571Y-124485400D02*
X110641333Y-124533019D01*
X110641333Y-124533019D02*
X110403238Y-124533019D01*
X110403238Y-124533019D02*
X110308000Y-124485400D01*
X110308000Y-124485400D02*
X110260381Y-124437780D01*
D11*
X102799463Y-116715150D02*
X102799463Y-114715150D01*
X102799463Y-114715150D02*
X103561368Y-114715150D01*
X103561368Y-114715150D02*
X103751844Y-114810388D01*
X103751844Y-114810388D02*
X103847082Y-114905626D01*
X103847082Y-114905626D02*
X103942320Y-115096102D01*
X103942320Y-115096102D02*
X103942320Y-115381816D01*
X103942320Y-115381816D02*
X103847082Y-115572292D01*
X103847082Y-115572292D02*
X103751844Y-115667531D01*
X103751844Y-115667531D02*
X103561368Y-115762769D01*
X103561368Y-115762769D02*
X102799463Y-115762769D01*
X104799463Y-116715150D02*
X104799463Y-115381816D01*
X104799463Y-114715150D02*
X104704225Y-114810388D01*
X104704225Y-114810388D02*
X104799463Y-114905626D01*
X104799463Y-114905626D02*
X104894701Y-114810388D01*
X104894701Y-114810388D02*
X104799463Y-114715150D01*
X104799463Y-114715150D02*
X104799463Y-114905626D01*
X106608987Y-116619912D02*
X106418511Y-116715150D01*
X106418511Y-116715150D02*
X106037558Y-116715150D01*
X106037558Y-116715150D02*
X105847082Y-116619912D01*
X105847082Y-116619912D02*
X105751844Y-116524673D01*
X105751844Y-116524673D02*
X105656606Y-116334197D01*
X105656606Y-116334197D02*
X105656606Y-115762769D01*
X105656606Y-115762769D02*
X105751844Y-115572292D01*
X105751844Y-115572292D02*
X105847082Y-115477054D01*
X105847082Y-115477054D02*
X106037558Y-115381816D01*
X106037558Y-115381816D02*
X106418511Y-115381816D01*
X106418511Y-115381816D02*
X106608987Y-115477054D01*
X107751844Y-116715150D02*
X107561368Y-116619912D01*
X107561368Y-116619912D02*
X107466130Y-116524673D01*
X107466130Y-116524673D02*
X107370892Y-116334197D01*
X107370892Y-116334197D02*
X107370892Y-115762769D01*
X107370892Y-115762769D02*
X107466130Y-115572292D01*
X107466130Y-115572292D02*
X107561368Y-115477054D01*
X107561368Y-115477054D02*
X107751844Y-115381816D01*
X107751844Y-115381816D02*
X108037559Y-115381816D01*
X108037559Y-115381816D02*
X108228035Y-115477054D01*
X108228035Y-115477054D02*
X108323273Y-115572292D01*
X108323273Y-115572292D02*
X108418511Y-115762769D01*
X108418511Y-115762769D02*
X108418511Y-116334197D01*
X108418511Y-116334197D02*
X108323273Y-116524673D01*
X108323273Y-116524673D02*
X108228035Y-116619912D01*
X108228035Y-116619912D02*
X108037559Y-116715150D01*
X108037559Y-116715150D02*
X107751844Y-116715150D01*
X108989940Y-115381816D02*
X109751844Y-115381816D01*
X109275654Y-114715150D02*
X109275654Y-116429435D01*
X109275654Y-116429435D02*
X109370892Y-116619912D01*
X109370892Y-116619912D02*
X109561368Y-116715150D01*
X109561368Y-116715150D02*
X109751844Y-116715150D01*
X111275654Y-116715150D02*
X111275654Y-115667531D01*
X111275654Y-115667531D02*
X111180416Y-115477054D01*
X111180416Y-115477054D02*
X110989940Y-115381816D01*
X110989940Y-115381816D02*
X110608987Y-115381816D01*
X110608987Y-115381816D02*
X110418511Y-115477054D01*
X111275654Y-116619912D02*
X111085178Y-116715150D01*
X111085178Y-116715150D02*
X110608987Y-116715150D01*
X110608987Y-116715150D02*
X110418511Y-116619912D01*
X110418511Y-116619912D02*
X110323273Y-116429435D01*
X110323273Y-116429435D02*
X110323273Y-116238959D01*
X110323273Y-116238959D02*
X110418511Y-116048483D01*
X110418511Y-116048483D02*
X110608987Y-115953245D01*
X110608987Y-115953245D02*
X111085178Y-115953245D01*
X111085178Y-115953245D02*
X111275654Y-115858007D01*
X112228035Y-116715150D02*
X112228035Y-115381816D01*
X112228035Y-115762769D02*
X112323273Y-115572292D01*
X112323273Y-115572292D02*
X112418511Y-115477054D01*
X112418511Y-115477054D02*
X112608987Y-115381816D01*
X112608987Y-115381816D02*
X112799464Y-115381816D01*
X113466130Y-116715150D02*
X113466130Y-115381816D01*
X113466130Y-114715150D02*
X113370892Y-114810388D01*
X113370892Y-114810388D02*
X113466130Y-114905626D01*
X113466130Y-114905626D02*
X113561368Y-114810388D01*
X113561368Y-114810388D02*
X113466130Y-114715150D01*
X113466130Y-114715150D02*
X113466130Y-114905626D01*
X115847083Y-114905626D02*
X115942321Y-114810388D01*
X115942321Y-114810388D02*
X116132797Y-114715150D01*
X116132797Y-114715150D02*
X116608988Y-114715150D01*
X116608988Y-114715150D02*
X116799464Y-114810388D01*
X116799464Y-114810388D02*
X116894702Y-114905626D01*
X116894702Y-114905626D02*
X116989940Y-115096102D01*
X116989940Y-115096102D02*
X116989940Y-115286578D01*
X116989940Y-115286578D02*
X116894702Y-115572292D01*
X116894702Y-115572292D02*
X115751845Y-116715150D01*
X115751845Y-116715150D02*
X116989940Y-116715150D01*
X118704226Y-114715150D02*
X118323273Y-114715150D01*
X118323273Y-114715150D02*
X118132797Y-114810388D01*
X118132797Y-114810388D02*
X118037559Y-114905626D01*
X118037559Y-114905626D02*
X117847083Y-115191340D01*
X117847083Y-115191340D02*
X117751845Y-115572292D01*
X117751845Y-115572292D02*
X117751845Y-116334197D01*
X117751845Y-116334197D02*
X117847083Y-116524673D01*
X117847083Y-116524673D02*
X117942321Y-116619912D01*
X117942321Y-116619912D02*
X118132797Y-116715150D01*
X118132797Y-116715150D02*
X118513750Y-116715150D01*
X118513750Y-116715150D02*
X118704226Y-116619912D01*
X118704226Y-116619912D02*
X118799464Y-116524673D01*
X118799464Y-116524673D02*
X118894702Y-116334197D01*
X118894702Y-116334197D02*
X118894702Y-115858007D01*
X118894702Y-115858007D02*
X118799464Y-115667531D01*
X118799464Y-115667531D02*
X118704226Y-115572292D01*
X118704226Y-115572292D02*
X118513750Y-115477054D01*
X118513750Y-115477054D02*
X118132797Y-115477054D01*
X118132797Y-115477054D02*
X117942321Y-115572292D01*
X117942321Y-115572292D02*
X117847083Y-115667531D01*
X117847083Y-115667531D02*
X117751845Y-115858007D01*
X120132797Y-114715150D02*
X120323274Y-114715150D01*
X120323274Y-114715150D02*
X120513750Y-114810388D01*
X120513750Y-114810388D02*
X120608988Y-114905626D01*
X120608988Y-114905626D02*
X120704226Y-115096102D01*
X120704226Y-115096102D02*
X120799464Y-115477054D01*
X120799464Y-115477054D02*
X120799464Y-115953245D01*
X120799464Y-115953245D02*
X120704226Y-116334197D01*
X120704226Y-116334197D02*
X120608988Y-116524673D01*
X120608988Y-116524673D02*
X120513750Y-116619912D01*
X120513750Y-116619912D02*
X120323274Y-116715150D01*
X120323274Y-116715150D02*
X120132797Y-116715150D01*
X120132797Y-116715150D02*
X119942321Y-116619912D01*
X119942321Y-116619912D02*
X119847083Y-116524673D01*
X119847083Y-116524673D02*
X119751845Y-116334197D01*
X119751845Y-116334197D02*
X119656607Y-115953245D01*
X119656607Y-115953245D02*
X119656607Y-115477054D01*
X119656607Y-115477054D02*
X119751845Y-115096102D01*
X119751845Y-115096102D02*
X119847083Y-114905626D01*
X119847083Y-114905626D02*
X119942321Y-114810388D01*
X119942321Y-114810388D02*
X120132797Y-114715150D01*
X122037559Y-114715150D02*
X122228036Y-114715150D01*
X122228036Y-114715150D02*
X122418512Y-114810388D01*
X122418512Y-114810388D02*
X122513750Y-114905626D01*
X122513750Y-114905626D02*
X122608988Y-115096102D01*
X122608988Y-115096102D02*
X122704226Y-115477054D01*
X122704226Y-115477054D02*
X122704226Y-115953245D01*
X122704226Y-115953245D02*
X122608988Y-116334197D01*
X122608988Y-116334197D02*
X122513750Y-116524673D01*
X122513750Y-116524673D02*
X122418512Y-116619912D01*
X122418512Y-116619912D02*
X122228036Y-116715150D01*
X122228036Y-116715150D02*
X122037559Y-116715150D01*
X122037559Y-116715150D02*
X121847083Y-116619912D01*
X121847083Y-116619912D02*
X121751845Y-116524673D01*
X121751845Y-116524673D02*
X121656607Y-116334197D01*
X121656607Y-116334197D02*
X121561369Y-115953245D01*
X121561369Y-115953245D02*
X121561369Y-115477054D01*
X121561369Y-115477054D02*
X121656607Y-115096102D01*
X121656607Y-115096102D02*
X121751845Y-114905626D01*
X121751845Y-114905626D02*
X121847083Y-114810388D01*
X121847083Y-114810388D02*
X122037559Y-114715150D01*
X108513750Y-119935038D02*
X107847083Y-118982657D01*
X107370893Y-119935038D02*
X107370893Y-117935038D01*
X107370893Y-117935038D02*
X108132798Y-117935038D01*
X108132798Y-117935038D02*
X108323274Y-118030276D01*
X108323274Y-118030276D02*
X108418512Y-118125514D01*
X108418512Y-118125514D02*
X108513750Y-118315990D01*
X108513750Y-118315990D02*
X108513750Y-118601704D01*
X108513750Y-118601704D02*
X108418512Y-118792180D01*
X108418512Y-118792180D02*
X108323274Y-118887419D01*
X108323274Y-118887419D02*
X108132798Y-118982657D01*
X108132798Y-118982657D02*
X107370893Y-118982657D01*
X109751845Y-117935038D02*
X110132798Y-117935038D01*
X110132798Y-117935038D02*
X110323274Y-118030276D01*
X110323274Y-118030276D02*
X110513750Y-118220752D01*
X110513750Y-118220752D02*
X110608988Y-118601704D01*
X110608988Y-118601704D02*
X110608988Y-119268371D01*
X110608988Y-119268371D02*
X110513750Y-119649323D01*
X110513750Y-119649323D02*
X110323274Y-119839800D01*
X110323274Y-119839800D02*
X110132798Y-119935038D01*
X110132798Y-119935038D02*
X109751845Y-119935038D01*
X109751845Y-119935038D02*
X109561369Y-119839800D01*
X109561369Y-119839800D02*
X109370893Y-119649323D01*
X109370893Y-119649323D02*
X109275655Y-119268371D01*
X109275655Y-119268371D02*
X109275655Y-118601704D01*
X109275655Y-118601704D02*
X109370893Y-118220752D01*
X109370893Y-118220752D02*
X109561369Y-118030276D01*
X109561369Y-118030276D02*
X109751845Y-117935038D01*
X111466131Y-119935038D02*
X111466131Y-117935038D01*
X111466131Y-117935038D02*
X112132798Y-119363609D01*
X112132798Y-119363609D02*
X112799464Y-117935038D01*
X112799464Y-117935038D02*
X112799464Y-119935038D01*
X115275655Y-118887419D02*
X115942322Y-118887419D01*
X116228036Y-119935038D02*
X115275655Y-119935038D01*
X115275655Y-119935038D02*
X115275655Y-117935038D01*
X115275655Y-117935038D02*
X116228036Y-117935038D01*
X117085179Y-119935038D02*
X117085179Y-118601704D01*
X117085179Y-118792180D02*
X117180417Y-118696942D01*
X117180417Y-118696942D02*
X117370893Y-118601704D01*
X117370893Y-118601704D02*
X117656608Y-118601704D01*
X117656608Y-118601704D02*
X117847084Y-118696942D01*
X117847084Y-118696942D02*
X117942322Y-118887419D01*
X117942322Y-118887419D02*
X117942322Y-119935038D01*
X117942322Y-118887419D02*
X118037560Y-118696942D01*
X118037560Y-118696942D02*
X118228036Y-118601704D01*
X118228036Y-118601704D02*
X118513750Y-118601704D01*
X118513750Y-118601704D02*
X118704227Y-118696942D01*
X118704227Y-118696942D02*
X118799465Y-118887419D01*
X118799465Y-118887419D02*
X118799465Y-119935038D01*
X120608989Y-118601704D02*
X120608989Y-119935038D01*
X119751846Y-118601704D02*
X119751846Y-119649323D01*
X119751846Y-119649323D02*
X119847084Y-119839800D01*
X119847084Y-119839800D02*
X120037560Y-119935038D01*
X120037560Y-119935038D02*
X120323275Y-119935038D01*
X120323275Y-119935038D02*
X120513751Y-119839800D01*
X120513751Y-119839800D02*
X120608989Y-119744561D01*
X121847084Y-119935038D02*
X121656608Y-119839800D01*
X121656608Y-119839800D02*
X121561370Y-119649323D01*
X121561370Y-119649323D02*
X121561370Y-117935038D01*
X123466132Y-119935038D02*
X123466132Y-118887419D01*
X123466132Y-118887419D02*
X123370894Y-118696942D01*
X123370894Y-118696942D02*
X123180418Y-118601704D01*
X123180418Y-118601704D02*
X122799465Y-118601704D01*
X122799465Y-118601704D02*
X122608989Y-118696942D01*
X123466132Y-119839800D02*
X123275656Y-119935038D01*
X123275656Y-119935038D02*
X122799465Y-119935038D01*
X122799465Y-119935038D02*
X122608989Y-119839800D01*
X122608989Y-119839800D02*
X122513751Y-119649323D01*
X122513751Y-119649323D02*
X122513751Y-119458847D01*
X122513751Y-119458847D02*
X122608989Y-119268371D01*
X122608989Y-119268371D02*
X122799465Y-119173133D01*
X122799465Y-119173133D02*
X123275656Y-119173133D01*
X123275656Y-119173133D02*
X123466132Y-119077895D01*
X124132799Y-118601704D02*
X124894703Y-118601704D01*
X124418513Y-117935038D02*
X124418513Y-119649323D01*
X124418513Y-119649323D02*
X124513751Y-119839800D01*
X124513751Y-119839800D02*
X124704227Y-119935038D01*
X124704227Y-119935038D02*
X124894703Y-119935038D01*
X125847084Y-119935038D02*
X125656608Y-119839800D01*
X125656608Y-119839800D02*
X125561370Y-119744561D01*
X125561370Y-119744561D02*
X125466132Y-119554085D01*
X125466132Y-119554085D02*
X125466132Y-118982657D01*
X125466132Y-118982657D02*
X125561370Y-118792180D01*
X125561370Y-118792180D02*
X125656608Y-118696942D01*
X125656608Y-118696942D02*
X125847084Y-118601704D01*
X125847084Y-118601704D02*
X126132799Y-118601704D01*
X126132799Y-118601704D02*
X126323275Y-118696942D01*
X126323275Y-118696942D02*
X126418513Y-118792180D01*
X126418513Y-118792180D02*
X126513751Y-118982657D01*
X126513751Y-118982657D02*
X126513751Y-119554085D01*
X126513751Y-119554085D02*
X126418513Y-119744561D01*
X126418513Y-119744561D02*
X126323275Y-119839800D01*
X126323275Y-119839800D02*
X126132799Y-119935038D01*
X126132799Y-119935038D02*
X125847084Y-119935038D01*
X127370894Y-119935038D02*
X127370894Y-118601704D01*
X127370894Y-118982657D02*
X127466132Y-118792180D01*
X127466132Y-118792180D02*
X127561370Y-118696942D01*
X127561370Y-118696942D02*
X127751846Y-118601704D01*
X127751846Y-118601704D02*
X127942323Y-118601704D01*
D12*
X113738285Y-126349809D02*
X113404952Y-126349809D01*
X113404952Y-126873619D02*
X113404952Y-125873619D01*
X113404952Y-125873619D02*
X113881142Y-125873619D01*
X114833523Y-126873619D02*
X114500190Y-126397428D01*
X114262095Y-126873619D02*
X114262095Y-125873619D01*
X114262095Y-125873619D02*
X114643047Y-125873619D01*
X114643047Y-125873619D02*
X114738285Y-125921238D01*
X114738285Y-125921238D02*
X114785904Y-125968857D01*
X114785904Y-125968857D02*
X114833523Y-126064095D01*
X114833523Y-126064095D02*
X114833523Y-126206952D01*
X114833523Y-126206952D02*
X114785904Y-126302190D01*
X114785904Y-126302190D02*
X114738285Y-126349809D01*
X114738285Y-126349809D02*
X114643047Y-126397428D01*
X114643047Y-126397428D02*
X114262095Y-126397428D01*
X115452571Y-125873619D02*
X115643047Y-125873619D01*
X115643047Y-125873619D02*
X115738285Y-125921238D01*
X115738285Y-125921238D02*
X115833523Y-126016476D01*
X115833523Y-126016476D02*
X115881142Y-126206952D01*
X115881142Y-126206952D02*
X115881142Y-126540285D01*
X115881142Y-126540285D02*
X115833523Y-126730761D01*
X115833523Y-126730761D02*
X115738285Y-126826000D01*
X115738285Y-126826000D02*
X115643047Y-126873619D01*
X115643047Y-126873619D02*
X115452571Y-126873619D01*
X115452571Y-126873619D02*
X115357333Y-126826000D01*
X115357333Y-126826000D02*
X115262095Y-126730761D01*
X115262095Y-126730761D02*
X115214476Y-126540285D01*
X115214476Y-126540285D02*
X115214476Y-126206952D01*
X115214476Y-126206952D02*
X115262095Y-126016476D01*
X115262095Y-126016476D02*
X115357333Y-125921238D01*
X115357333Y-125921238D02*
X115452571Y-125873619D01*
X116309714Y-126873619D02*
X116309714Y-125873619D01*
X116309714Y-125873619D02*
X116881142Y-126873619D01*
X116881142Y-126873619D02*
X116881142Y-125873619D01*
X117214476Y-125873619D02*
X117785904Y-125873619D01*
X117500190Y-126873619D02*
X117500190Y-125873619D01*
D10*
X101839714Y-129416219D02*
X101268286Y-129416219D01*
X101554000Y-129416219D02*
X101554000Y-128416219D01*
X101554000Y-128416219D02*
X101458762Y-128559076D01*
X101458762Y-128559076D02*
X101363524Y-128654314D01*
X101363524Y-128654314D02*
X101268286Y-128701933D01*
X129303523Y-129416219D02*
X128732095Y-129416219D01*
X129017809Y-129416219D02*
X129017809Y-128416219D01*
X129017809Y-128416219D02*
X128922571Y-128559076D01*
X128922571Y-128559076D02*
X128827333Y-128654314D01*
X128827333Y-128654314D02*
X128732095Y-128701933D01*
X129684476Y-128511457D02*
X129732095Y-128463838D01*
X129732095Y-128463838D02*
X129827333Y-128416219D01*
X129827333Y-128416219D02*
X130065428Y-128416219D01*
X130065428Y-128416219D02*
X130160666Y-128463838D01*
X130160666Y-128463838D02*
X130208285Y-128511457D01*
X130208285Y-128511457D02*
X130255904Y-128606695D01*
X130255904Y-128606695D02*
X130255904Y-128701933D01*
X130255904Y-128701933D02*
X130208285Y-128844790D01*
X130208285Y-128844790D02*
X129636857Y-129416219D01*
X129636857Y-129416219D02*
X130255904Y-129416219D01*
X91045380Y-91738679D02*
X90235857Y-91738679D01*
X90235857Y-91738679D02*
X90140619Y-91786298D01*
X90140619Y-91786298D02*
X90093000Y-91833917D01*
X90093000Y-91833917D02*
X90045380Y-91929155D01*
X90045380Y-91929155D02*
X90045380Y-92119631D01*
X90045380Y-92119631D02*
X90093000Y-92214869D01*
X90093000Y-92214869D02*
X90140619Y-92262488D01*
X90140619Y-92262488D02*
X90235857Y-92310107D01*
X90235857Y-92310107D02*
X91045380Y-92310107D01*
X90712047Y-93214869D02*
X90045380Y-93214869D01*
X91093000Y-92976774D02*
X90378714Y-92738679D01*
X90378714Y-92738679D02*
X90378714Y-93357726D01*
X96083219Y-103022304D02*
X96892742Y-103022304D01*
X96892742Y-103022304D02*
X96987980Y-102974685D01*
X96987980Y-102974685D02*
X97035600Y-102927066D01*
X97035600Y-102927066D02*
X97083219Y-102831828D01*
X97083219Y-102831828D02*
X97083219Y-102641352D01*
X97083219Y-102641352D02*
X97035600Y-102546114D01*
X97035600Y-102546114D02*
X96987980Y-102498495D01*
X96987980Y-102498495D02*
X96892742Y-102450876D01*
X96892742Y-102450876D02*
X96083219Y-102450876D01*
X96083219Y-102069923D02*
X96083219Y-101450876D01*
X96083219Y-101450876D02*
X96464171Y-101784209D01*
X96464171Y-101784209D02*
X96464171Y-101641352D01*
X96464171Y-101641352D02*
X96511790Y-101546114D01*
X96511790Y-101546114D02*
X96559409Y-101498495D01*
X96559409Y-101498495D02*
X96654647Y-101450876D01*
X96654647Y-101450876D02*
X96892742Y-101450876D01*
X96892742Y-101450876D02*
X96987980Y-101498495D01*
X96987980Y-101498495D02*
X97035600Y-101546114D01*
X97035600Y-101546114D02*
X97083219Y-101641352D01*
X97083219Y-101641352D02*
X97083219Y-101927066D01*
X97083219Y-101927066D02*
X97035600Y-102022304D01*
X97035600Y-102022304D02*
X96987980Y-102069923D01*
D13*
%TO.C,C1*%
X136677600Y-92707600D02*
X136677600Y-92772600D01*
X136677600Y-92707600D02*
X139917600Y-92707600D01*
X136677600Y-94882600D02*
X136677600Y-94947600D01*
X136677600Y-94947600D02*
X139917600Y-94947600D01*
X139917600Y-92707600D02*
X139917600Y-92772600D01*
X139917600Y-94882600D02*
X139917600Y-94947600D01*
%TO.C,C2*%
X95704800Y-108260400D02*
X95704800Y-111500400D01*
X95769800Y-108260400D02*
X95704800Y-108260400D01*
X95769800Y-111500400D02*
X95704800Y-111500400D01*
X97944800Y-108260400D02*
X97879800Y-108260400D01*
X97944800Y-108260400D02*
X97944800Y-111500400D01*
X97944800Y-111500400D02*
X97879800Y-111500400D01*
%TO.C,U4*%
X89655200Y-69654400D02*
X89655200Y-73492339D01*
X89655200Y-76054400D02*
X89655200Y-74416461D01*
X89655200Y-78174400D02*
X89655200Y-78594400D01*
X89655200Y-80714400D02*
X89655200Y-81134400D01*
X89655200Y-84892339D02*
X89655200Y-83254400D01*
X89655200Y-85816461D02*
X89655200Y-89654400D01*
X92615200Y-69044400D02*
X92195200Y-69044400D01*
X92615200Y-90264400D02*
X92195200Y-90264400D01*
X95155200Y-69044400D02*
X94735200Y-69044400D01*
X95155200Y-90264400D02*
X94735200Y-90264400D01*
X97695200Y-69044400D02*
X97275200Y-69044400D01*
X97695200Y-90264400D02*
X97275200Y-90264400D01*
X100235200Y-69044400D02*
X99815200Y-69044400D01*
X100235200Y-90264400D02*
X99815200Y-90264400D01*
X102775200Y-69044400D02*
X102355200Y-69044400D01*
X102775200Y-90264400D02*
X102355200Y-90264400D01*
X105315200Y-69044400D02*
X104895200Y-69044400D01*
X105315200Y-90264400D02*
X104895200Y-90264400D01*
X107855200Y-69044400D02*
X107435200Y-69044400D01*
X107855200Y-90264400D02*
X107435200Y-90264400D01*
X110395200Y-69044400D02*
X109975200Y-69044400D01*
X110395200Y-90264400D02*
X109975200Y-90264400D01*
X112935200Y-69044400D02*
X112515200Y-69044400D01*
X112935200Y-90264400D02*
X112515200Y-90264400D01*
X115475200Y-69044400D02*
X115055200Y-69044400D01*
X115475200Y-90264400D02*
X115055200Y-90264400D01*
X118015200Y-69044400D02*
X117595200Y-69044400D01*
X118015200Y-90264400D02*
X117595200Y-90264400D01*
X120555200Y-69044400D02*
X120135200Y-69044400D01*
X120555200Y-90264400D02*
X120135200Y-90264400D01*
X123095200Y-69044400D02*
X122675200Y-69044400D01*
X123095200Y-90264400D02*
X122675200Y-90264400D01*
X125635200Y-69044400D02*
X125215200Y-69044400D01*
X125635200Y-90264400D02*
X125215200Y-90264400D01*
X128175200Y-69044400D02*
X127755200Y-69044400D01*
X128175200Y-90264400D02*
X127755200Y-90264400D01*
X130715200Y-69044400D02*
X130295200Y-69044400D01*
X130715200Y-90264400D02*
X130295200Y-90264400D01*
X133255200Y-69044400D02*
X132835200Y-69044400D01*
X133255200Y-90264400D02*
X132835200Y-90264400D01*
X135795200Y-69044400D02*
X135375200Y-69044400D01*
X135795200Y-90264400D02*
X135375200Y-90264400D01*
X136355200Y-75754400D02*
X136355200Y-76050490D01*
X136355200Y-78408310D02*
X136355200Y-80900490D01*
X136355200Y-83258310D02*
X136355200Y-83554400D01*
X137571200Y-75754400D02*
X136355200Y-75754400D01*
X137571200Y-83554400D02*
X136355200Y-83554400D01*
X138335200Y-69044400D02*
X137915200Y-69044400D01*
X138335200Y-69044400D02*
X138335200Y-68564400D01*
X138335200Y-90264400D02*
X137915200Y-90264400D01*
X140455200Y-69074724D02*
X140455200Y-68564400D01*
X140875200Y-69654400D02*
X140875200Y-72144400D01*
X140875200Y-72144400D02*
X140875200Y-73492340D01*
X140875200Y-74416461D02*
X140875200Y-75419400D01*
X140875200Y-75419400D02*
X140875200Y-83889400D01*
X140875200Y-75754400D02*
X139959200Y-75754400D01*
X140875200Y-83554400D02*
X139959200Y-83554400D01*
X140875200Y-83889400D02*
X140875200Y-84892339D01*
X140875200Y-85816461D02*
X140875200Y-87164400D01*
X140875200Y-89654400D02*
X140875200Y-87164400D01*
X89655200Y-69654400D02*
G75*
G02*
X90075263Y-69074724I610002J-1D01*
G01*
X90075263Y-90234076D02*
G75*
G02*
X89655196Y-89654400I189877J579636D01*
G01*
X140455200Y-69074724D02*
G75*
G02*
X140875200Y-69654400I-190051J-579692D01*
G01*
X140875200Y-89654400D02*
G75*
G02*
X140455137Y-90234076I-610000J0D01*
G01*
%TO.C,U5*%
X126178800Y-95342400D02*
X126178800Y-113242400D01*
X126178800Y-113242400D02*
X127828800Y-113242400D01*
X129828800Y-113242400D02*
X131478800Y-113242400D01*
X131478800Y-95342400D02*
X126178800Y-95342400D01*
X131478800Y-113242400D02*
X131478800Y-95342400D01*
X127828800Y-113242400D02*
G75*
G02*
X129828800Y-113242400I1000000J0D01*
G01*
%TO.C,U3*%
X97628400Y-99610400D02*
X97628400Y-101260400D01*
X97628400Y-103260400D02*
X97628400Y-104910400D01*
X97628400Y-104910400D02*
X123148400Y-104910400D01*
X123148400Y-99610400D02*
X97628400Y-99610400D01*
X123148400Y-104910400D02*
X123148400Y-99610400D01*
X97628400Y-101260400D02*
G75*
G02*
X97628400Y-103260400I0J-1000000D01*
G01*
%TO.C,C3*%
X124547200Y-114602400D02*
X124547200Y-114667400D01*
X124547200Y-114602400D02*
X127787200Y-114602400D01*
X124547200Y-116777400D02*
X124547200Y-116842400D01*
X124547200Y-116842400D02*
X127787200Y-116842400D01*
X127787200Y-114602400D02*
X127787200Y-114667400D01*
X127787200Y-116777400D02*
X127787200Y-116842400D01*
%TD*%
%LPC*%
D14*
%TO.C,U1*%
X101554000Y-132771400D03*
X104094000Y-132771400D03*
X106634000Y-132771400D03*
X109174000Y-132771400D03*
X111714000Y-132771400D03*
X114254000Y-132771400D03*
X116794000Y-132771400D03*
X119334000Y-132771400D03*
X121874000Y-132771400D03*
X124414000Y-132771400D03*
X126954000Y-132771400D03*
X129494000Y-132771400D03*
X129494000Y-132771400D03*
%TD*%
D15*
%TO.C,C1*%
X137047600Y-93827600D03*
X139547600Y-93827600D03*
%TD*%
%TO.C,C2*%
X96824800Y-108630400D03*
X96824800Y-111130400D03*
%TD*%
D16*
%TO.C,U4*%
X139265200Y-76929400D03*
D17*
X136235200Y-77229400D03*
X136235200Y-82079400D03*
D16*
X139265200Y-82379400D03*
D18*
X139395200Y-69964400D03*
D19*
X136855200Y-69964400D03*
D20*
X134315200Y-69964400D03*
D19*
X131775200Y-69964400D03*
X129235200Y-69964400D03*
X126695200Y-69964400D03*
X124155200Y-69964400D03*
D20*
X121615200Y-69964400D03*
D19*
X119075200Y-69964400D03*
X116535200Y-69964400D03*
X113995200Y-69964400D03*
X111455200Y-69964400D03*
D20*
X108915200Y-69964400D03*
D19*
X106375200Y-69964400D03*
X103835200Y-69964400D03*
X101295200Y-69964400D03*
X98755200Y-69964400D03*
D20*
X96215200Y-69964400D03*
D19*
X93675200Y-69964400D03*
X91135200Y-69964400D03*
X91135200Y-89344400D03*
X93675200Y-89344400D03*
D18*
X96215200Y-89344400D03*
D19*
X98755200Y-89344400D03*
X101295200Y-89344400D03*
X103835200Y-89344400D03*
X106375200Y-89344400D03*
D18*
X108915200Y-89344400D03*
D19*
X111455200Y-89344400D03*
X113995200Y-89344400D03*
X116535200Y-89344400D03*
X119075200Y-89344400D03*
D18*
X121615200Y-89344400D03*
D19*
X124155200Y-89344400D03*
X126695200Y-89344400D03*
X129235200Y-89344400D03*
X131775200Y-89344400D03*
D18*
X134315200Y-89344400D03*
D19*
X136855200Y-89344400D03*
X139395200Y-89344400D03*
D21*
X90565200Y-77114400D03*
D22*
X91365200Y-79654400D03*
D21*
X90565200Y-82194400D03*
%TD*%
D23*
%TO.C,U5*%
X132638800Y-111912400D03*
D24*
X132638800Y-109372400D03*
X132638800Y-106832400D03*
X132638800Y-104292400D03*
X132638800Y-101752400D03*
X132638800Y-99212400D03*
X132638800Y-96672400D03*
X125018800Y-96672400D03*
X125018800Y-99212400D03*
X125018800Y-101752400D03*
X125018800Y-104292400D03*
X125018800Y-106832400D03*
X125018800Y-109372400D03*
X125018800Y-111912400D03*
%TD*%
D25*
%TO.C,U3*%
X98958400Y-106070400D03*
D24*
X101498400Y-106070400D03*
X104038400Y-106070400D03*
X106578400Y-106070400D03*
X109118400Y-106070400D03*
X111658400Y-106070400D03*
X114198400Y-106070400D03*
X116738400Y-106070400D03*
X119278400Y-106070400D03*
X121818400Y-106070400D03*
X121818400Y-98450400D03*
X119278400Y-98450400D03*
X116738400Y-98450400D03*
X114198400Y-98450400D03*
X111658400Y-98450400D03*
X109118400Y-98450400D03*
X106578400Y-98450400D03*
X104038400Y-98450400D03*
X101498400Y-98450400D03*
X98958400Y-98450400D03*
%TD*%
D15*
%TO.C,C3*%
X124917200Y-115722400D03*
X127417200Y-115722400D03*
%TD*%
%LPD*%
M02*
