%TF.GenerationSoftware,KiCad,Pcbnew,8.0.8-8.0.8-0~ubuntu22.04.1*%
%TF.CreationDate,2025-02-03T17:59:30-05:00*%
%TF.ProjectId,2600cart,32363030-6361-4727-942e-6b696361645f,rev?*%
%TF.SameCoordinates,Original*%
%TF.FileFunction,Legend,Bot*%
%TF.FilePolarity,Positive*%
%FSLAX46Y46*%
G04 Gerber Fmt 4.6, Leading zero omitted, Abs format (unit mm)*
G04 Created by KiCad (PCBNEW 8.0.8-8.0.8-0~ubuntu22.04.1) date 2025-02-03 17:59:30*
%MOMM*%
%LPD*%
G01*
G04 APERTURE LIST*
G04 Aperture macros list*
%AMRoundRect*
0 Rectangle with rounded corners*
0 $1 Rounding radius*
0 $2 $3 $4 $5 $6 $7 $8 $9 X,Y pos of 4 corners*
0 Add a 4 corners polygon primitive as box body*
4,1,4,$2,$3,$4,$5,$6,$7,$8,$9,$2,$3,0*
0 Add four circle primitives for the rounded corners*
1,1,$1+$1,$2,$3*
1,1,$1+$1,$4,$5*
1,1,$1+$1,$6,$7*
1,1,$1+$1,$8,$9*
0 Add four rect primitives between the rounded corners*
20,1,$1+$1,$2,$3,$4,$5,0*
20,1,$1+$1,$4,$5,$6,$7,0*
20,1,$1+$1,$6,$7,$8,$9,0*
20,1,$1+$1,$8,$9,$2,$3,0*%
G04 Aperture macros list end*
%ADD10C,0.150000*%
%ADD11RoundRect,0.200000X-0.762000X-2.286000X0.762000X-2.286000X0.762000X2.286000X-0.762000X2.286000X0*%
%ADD12C,2.000000*%
%ADD13C,2.200000*%
%ADD14C,1.850000*%
%ADD15RoundRect,0.200000X0.800000X0.800000X-0.800000X0.800000X-0.800000X-0.800000X0.800000X-0.800000X0*%
%ADD16O,2.000000X2.000000*%
%ADD17RoundRect,0.200000X0.800000X-0.800000X0.800000X0.800000X-0.800000X0.800000X-0.800000X-0.800000X0*%
G04 APERTURE END LIST*
D10*
X102315904Y-128511457D02*
X102268285Y-128463838D01*
X102268285Y-128463838D02*
X102173047Y-128416219D01*
X102173047Y-128416219D02*
X101934952Y-128416219D01*
X101934952Y-128416219D02*
X101839714Y-128463838D01*
X101839714Y-128463838D02*
X101792095Y-128511457D01*
X101792095Y-128511457D02*
X101744476Y-128606695D01*
X101744476Y-128606695D02*
X101744476Y-128701933D01*
X101744476Y-128701933D02*
X101792095Y-128844790D01*
X101792095Y-128844790D02*
X102363523Y-129416219D01*
X102363523Y-129416219D02*
X101744476Y-129416219D01*
X100887333Y-128749552D02*
X100887333Y-129416219D01*
X101125428Y-128368600D02*
X101363523Y-129082885D01*
X101363523Y-129082885D02*
X100744476Y-129082885D01*
X129684476Y-129416219D02*
X130255904Y-129416219D01*
X129970190Y-129416219D02*
X129970190Y-128416219D01*
X129970190Y-128416219D02*
X130065428Y-128559076D01*
X130065428Y-128559076D02*
X130160666Y-128654314D01*
X130160666Y-128654314D02*
X130255904Y-128701933D01*
X129351142Y-128416219D02*
X128732095Y-128416219D01*
X128732095Y-128416219D02*
X129065428Y-128797171D01*
X129065428Y-128797171D02*
X128922571Y-128797171D01*
X128922571Y-128797171D02*
X128827333Y-128844790D01*
X128827333Y-128844790D02*
X128779714Y-128892409D01*
X128779714Y-128892409D02*
X128732095Y-128987647D01*
X128732095Y-128987647D02*
X128732095Y-129225742D01*
X128732095Y-129225742D02*
X128779714Y-129320980D01*
X128779714Y-129320980D02*
X128827333Y-129368600D01*
X128827333Y-129368600D02*
X128922571Y-129416219D01*
X128922571Y-129416219D02*
X129208285Y-129416219D01*
X129208285Y-129416219D02*
X129303523Y-129368600D01*
X129303523Y-129368600D02*
X129351142Y-129320980D01*
%LPC*%
D11*
%TO.C,U1*%
X129494000Y-132771400D03*
X126954000Y-132771400D03*
X124414000Y-132771400D03*
X121874000Y-132771400D03*
X119334000Y-132771400D03*
X116794000Y-132771400D03*
X114254000Y-132771400D03*
X111714000Y-132771400D03*
X109174000Y-132771400D03*
X106634000Y-132771400D03*
X104094000Y-132771400D03*
X101554000Y-132771400D03*
%TD*%
D12*
%TO.C,C1*%
X137047600Y-93827600D03*
X139547600Y-93827600D03*
%TD*%
%TO.C,C2*%
X96824800Y-108630400D03*
X96824800Y-111130400D03*
%TD*%
D13*
%TO.C,U4*%
X139265200Y-76929400D03*
D14*
X136235200Y-77229400D03*
X136235200Y-82079400D03*
D13*
X139265200Y-82379400D03*
%TD*%
D15*
%TO.C,U5*%
X132638800Y-111912400D03*
D16*
X132638800Y-109372400D03*
X132638800Y-106832400D03*
X132638800Y-104292400D03*
X132638800Y-101752400D03*
X132638800Y-99212400D03*
X132638800Y-96672400D03*
X125018800Y-96672400D03*
X125018800Y-99212400D03*
X125018800Y-101752400D03*
X125018800Y-104292400D03*
X125018800Y-106832400D03*
X125018800Y-109372400D03*
X125018800Y-111912400D03*
%TD*%
D17*
%TO.C,U3*%
X98958400Y-106070400D03*
D16*
X101498400Y-106070400D03*
X104038400Y-106070400D03*
X106578400Y-106070400D03*
X109118400Y-106070400D03*
X111658400Y-106070400D03*
X114198400Y-106070400D03*
X116738400Y-106070400D03*
X119278400Y-106070400D03*
X121818400Y-106070400D03*
X121818400Y-98450400D03*
X119278400Y-98450400D03*
X116738400Y-98450400D03*
X114198400Y-98450400D03*
X111658400Y-98450400D03*
X109118400Y-98450400D03*
X106578400Y-98450400D03*
X104038400Y-98450400D03*
X101498400Y-98450400D03*
X98958400Y-98450400D03*
%TD*%
D12*
%TO.C,C3*%
X124917200Y-115722400D03*
X127417200Y-115722400D03*
%TD*%
%LPD*%
M02*
