%TF.GenerationSoftware,KiCad,Pcbnew,8.0.8-8.0.8-0~ubuntu22.04.1*%
%TF.CreationDate,2025-02-03T17:59:29-05:00*%
%TF.ProjectId,2600cart,32363030-6361-4727-942e-6b696361645f,rev?*%
%TF.SameCoordinates,Original*%
%TF.FileFunction,Copper,L3,Inr*%
%TF.FilePolarity,Positive*%
%FSLAX46Y46*%
G04 Gerber Fmt 4.6, Leading zero omitted, Abs format (unit mm)*
G04 Created by KiCad (PCBNEW 8.0.8-8.0.8-0~ubuntu22.04.1) date 2025-02-03 17:59:29*
%MOMM*%
%LPD*%
G01*
G04 APERTURE LIST*
%TA.AperFunction,ComponentPad*%
%ADD10C,1.600000*%
%TD*%
%TA.AperFunction,ComponentPad*%
%ADD11R,1.600000X1.600000*%
%TD*%
%TA.AperFunction,ComponentPad*%
%ADD12O,1.600000X1.600000*%
%TD*%
%TA.AperFunction,ViaPad*%
%ADD13C,0.600000*%
%TD*%
%TA.AperFunction,Conductor*%
%ADD14C,0.250000*%
%TD*%
G04 APERTURE END LIST*
D10*
%TO.N,VCC*%
%TO.C,C1*%
X137047600Y-93827600D03*
%TO.N,GND*%
X139547600Y-93827600D03*
%TD*%
%TO.N,VCC*%
%TO.C,C2*%
X96824800Y-108630400D03*
%TO.N,GND*%
X96824800Y-111130400D03*
%TD*%
D11*
%TO.N,A12*%
%TO.C,U5*%
X132638800Y-111912400D03*
D12*
%TO.N,Net-(U3-~{OE})*%
X132638800Y-109372400D03*
%TO.N,VCC*%
X132638800Y-106832400D03*
%TO.N,unconnected-(U5-Pad4)*%
X132638800Y-104292400D03*
%TO.N,VCC*%
X132638800Y-101752400D03*
%TO.N,unconnected-(U5-Pad6)*%
X132638800Y-99212400D03*
%TO.N,GND*%
X132638800Y-96672400D03*
%TO.N,unconnected-(U5-Pad8)*%
X125018800Y-96672400D03*
%TO.N,VCC*%
X125018800Y-99212400D03*
%TO.N,unconnected-(U5-Pad10)*%
X125018800Y-101752400D03*
%TO.N,VCC*%
X125018800Y-104292400D03*
%TO.N,unconnected-(U5-Pad12)*%
X125018800Y-106832400D03*
%TO.N,VCC*%
X125018800Y-109372400D03*
X125018800Y-111912400D03*
%TD*%
D11*
%TO.N,VCC*%
%TO.C,U3*%
X98958400Y-106070400D03*
D12*
%TO.N,D0*%
X101498400Y-106070400D03*
%TO.N,D1*%
X104038400Y-106070400D03*
%TO.N,D2*%
X106578400Y-106070400D03*
%TO.N,D3*%
X109118400Y-106070400D03*
%TO.N,D4*%
X111658400Y-106070400D03*
%TO.N,D5*%
X114198400Y-106070400D03*
%TO.N,D6*%
X116738400Y-106070400D03*
%TO.N,D7*%
X119278400Y-106070400D03*
%TO.N,GND*%
X121818400Y-106070400D03*
%TO.N,Net-(U3-B8)*%
X121818400Y-98450400D03*
%TO.N,Net-(U3-B7)*%
X119278400Y-98450400D03*
%TO.N,Net-(U3-B6)*%
X116738400Y-98450400D03*
%TO.N,Net-(U3-B5)*%
X114198400Y-98450400D03*
%TO.N,Net-(U3-B4)*%
X111658400Y-98450400D03*
%TO.N,Net-(U3-B3)*%
X109118400Y-98450400D03*
%TO.N,Net-(U3-B2)*%
X106578400Y-98450400D03*
%TO.N,Net-(U3-B1)*%
X104038400Y-98450400D03*
%TO.N,Net-(U3-~{OE})*%
X101498400Y-98450400D03*
%TO.N,VCC*%
X98958400Y-98450400D03*
%TD*%
D10*
%TO.N,VCC*%
%TO.C,C3*%
X124917200Y-115722400D03*
%TO.N,GND*%
X127417200Y-115722400D03*
%TD*%
D13*
%TO.N,GND*%
X101000000Y-126000000D03*
%TO.N,A12*%
X129794000Y-112217200D03*
%TO.N,A7*%
X104138881Y-126243019D03*
X116535200Y-73202800D03*
%TO.N,A6*%
X106629200Y-126746000D03*
X119024400Y-73202800D03*
%TO.N,A5*%
X108305600Y-126644400D03*
X124104400Y-73406000D03*
%TO.N,A4*%
X126085600Y-73202800D03*
X110134400Y-126898400D03*
%TO.N,A3*%
X128930400Y-72847200D03*
X112115600Y-126746000D03*
%TO.N,A2*%
X131673600Y-72948800D03*
X114909600Y-126847600D03*
%TO.N,A1*%
X136956800Y-73050400D03*
X116535200Y-126847600D03*
%TO.N,A0*%
X139344400Y-72440800D03*
X117754400Y-126847600D03*
%TO.N,D3*%
X127508000Y-126593600D03*
%TO.N,D4*%
X126756142Y-125313458D03*
%TO.N,D5*%
X124460000Y-121920000D03*
%TO.N,D6*%
X121930142Y-118506258D03*
%TO.N,D7*%
X119227600Y-114706400D03*
%TO.N,A10*%
X106476800Y-73355200D03*
%TO.N,A11*%
X108966000Y-74676000D03*
%TO.N,A9*%
X107797600Y-76403200D03*
%TO.N,A8*%
X105359200Y-78384400D03*
%TD*%
D14*
%TO.N,A7*%
X104138881Y-117095119D02*
X109982000Y-111252000D01*
X115613400Y-98762600D02*
X115613400Y-94038200D01*
X110533400Y-110700600D02*
X110533400Y-103842600D01*
X115613400Y-94038200D02*
X115620800Y-94030800D01*
X115620800Y-94030800D02*
X116535200Y-93116400D01*
X116535200Y-93116400D02*
X116535200Y-73202800D01*
X109982000Y-111252000D02*
X110533400Y-110700600D01*
X104138881Y-126243019D02*
X104138881Y-117095119D01*
X110533400Y-103842600D02*
X115613400Y-98762600D01*
%TO.N,A6*%
X112783400Y-104335800D02*
X118059200Y-99060000D01*
X118059200Y-74168000D02*
X119024400Y-73202800D01*
X118059200Y-99060000D02*
X118059200Y-74168000D01*
X112783400Y-111143000D02*
X112783400Y-104335800D01*
X106629200Y-117297200D02*
X112268000Y-111658400D01*
X106629200Y-126746000D02*
X106629200Y-117297200D01*
X112268000Y-111658400D02*
X112783400Y-111143000D01*
%TO.N,A5*%
X120693400Y-76817000D02*
X124104400Y-73406000D01*
X115323400Y-110635000D02*
X115323400Y-104081800D01*
X115163600Y-110794800D02*
X115323400Y-110635000D01*
X120693400Y-98711800D02*
X120693400Y-76817000D01*
X108305600Y-126644400D02*
X108305600Y-117652800D01*
X108305600Y-117652800D02*
X115163600Y-110794800D01*
X115323400Y-104081800D02*
X119888000Y-99517200D01*
X119888000Y-99517200D02*
X120693400Y-98711800D01*
%TO.N,A4*%
X110134400Y-126898400D02*
X110134400Y-118465600D01*
X110134400Y-118465600D02*
X117856000Y-110744000D01*
X117856000Y-110744000D02*
X117863400Y-110736600D01*
X123443800Y-75844600D02*
X126085600Y-73202800D01*
X117863400Y-110736600D02*
X117863400Y-104589800D01*
X123443800Y-99009400D02*
X123443800Y-97637600D01*
X123443800Y-97637600D02*
X123443800Y-75844600D01*
X117863400Y-104589800D02*
X123443800Y-99009400D01*
%TO.N,A3*%
X127762000Y-74015600D02*
X128930400Y-72847200D01*
X112115600Y-117856000D02*
X120650000Y-109321600D01*
X120650000Y-109321600D02*
X120650000Y-105351800D01*
X127762000Y-92608400D02*
X127762000Y-74015600D01*
X127491809Y-92608400D02*
X127762000Y-92608400D01*
X123893800Y-102108000D02*
X123893800Y-96206409D01*
X123893800Y-96206409D02*
X127491809Y-92608400D01*
X112115600Y-126746000D02*
X112115600Y-117856000D01*
X120650000Y-105351800D02*
X123893800Y-102108000D01*
%TO.N,A2*%
X123545600Y-107950000D02*
X123545600Y-104174609D01*
X123545600Y-104174609D02*
X124799409Y-102920800D01*
X129184400Y-100279200D02*
X129184400Y-91033600D01*
X114909600Y-116586000D02*
X123545600Y-107950000D01*
X114909600Y-126847600D02*
X114909600Y-116586000D01*
X131673600Y-88544400D02*
X131673600Y-72948800D01*
X126542800Y-102920800D02*
X129184400Y-100279200D01*
X131521200Y-88696800D02*
X131673600Y-88544400D01*
X129184400Y-91033600D02*
X131521200Y-88696800D01*
X124799409Y-102920800D02*
X126542800Y-102920800D01*
%TO.N,A1*%
X124799409Y-108000800D02*
X126644400Y-108000800D01*
X116535200Y-126847600D02*
X116535200Y-116265009D01*
X130048000Y-104597200D02*
X130048000Y-94691200D01*
X126644400Y-108000800D02*
X130048000Y-104597200D01*
X116535200Y-116265009D02*
X124799409Y-108000800D01*
X134061200Y-90678000D02*
X134061200Y-75946000D01*
X134061200Y-75946000D02*
X136956800Y-73050400D01*
X133858000Y-90881200D02*
X134061200Y-90678000D01*
X130048000Y-94691200D02*
X133858000Y-90881200D01*
%TO.N,A0*%
X131064000Y-105156000D02*
X131064000Y-95656400D01*
X137790200Y-88930200D02*
X137790200Y-73995000D01*
X125432600Y-110787400D02*
X131064000Y-105156000D01*
X137790200Y-73995000D02*
X139344400Y-72440800D01*
X135839200Y-90881200D02*
X137790200Y-88930200D01*
X117754400Y-126847600D02*
X117754400Y-117585809D01*
X124552809Y-110787400D02*
X125432600Y-110787400D01*
X131064000Y-95656400D02*
X135839200Y-90881200D01*
X117754400Y-117585809D02*
X124552809Y-110787400D01*
%TD*%
M02*
