%TF.GenerationSoftware,KiCad,Pcbnew,8.0.8-8.0.8-0~ubuntu22.04.1*%
%TF.CreationDate,2025-02-03T18:01:07-05:00*%
%TF.ProjectId,2600cart,32363030-6361-4727-942e-6b696361645f,rev?*%
%TF.SameCoordinates,Original*%
%TF.FileFunction,Drillmap*%
%TF.FilePolarity,Positive*%
%FSLAX45Y45*%
G04 Gerber Fmt 4.5, Leading zero omitted, Abs format (unit mm)*
G04 Created by KiCad (PCBNEW 8.0.8-8.0.8-0~ubuntu22.04.1) date 2025-02-03 18:01:07*
%MOMM*%
%LPD*%
G01*
G04 APERTURE LIST*
%ADD10C,0.150000*%
%ADD11C,0.200000*%
%ADD12C,0.100000*%
G04 APERTURE END LIST*
D10*
X14300200Y-7213600D02*
X14168120Y-7274560D01*
X14168120Y-8691880D01*
X14295120Y-8737600D01*
X14295120Y-9628010D01*
X13434540Y-9639860D01*
X13434540Y-10038640D01*
X13622500Y-10038640D01*
X13622500Y-11468660D01*
X13188160Y-11943640D01*
X13188160Y-13531140D01*
X9934420Y-13531140D01*
X9934420Y-11943640D01*
X9495000Y-11468660D01*
X9495000Y-10038640D01*
X9682960Y-10038640D01*
X9682960Y-9639860D01*
X8798115Y-9635823D01*
X8800000Y-6650000D01*
X14300000Y-6650000D01*
X14300200Y-7213600D01*
D11*
D12*
X10080000Y-12580000D02*
X10120000Y-12620000D01*
X10120000Y-12580000D02*
X10080000Y-12620000D01*
X10393888Y-12604302D02*
X10433888Y-12644302D01*
X10433888Y-12604302D02*
X10393888Y-12644302D01*
X10515920Y-7818440D02*
X10555920Y-7858440D01*
X10555920Y-7818440D02*
X10515920Y-7858440D01*
X10627680Y-7315520D02*
X10667680Y-7355520D01*
X10667680Y-7315520D02*
X10627680Y-7355520D01*
X10642920Y-12654600D02*
X10682920Y-12694600D01*
X10682920Y-12654600D02*
X10642920Y-12694600D01*
X10759760Y-7620320D02*
X10799760Y-7660320D01*
X10799760Y-7620320D02*
X10759760Y-7660320D01*
X10810560Y-12644440D02*
X10850560Y-12684440D01*
X10850560Y-12644440D02*
X10810560Y-12684440D01*
X10876600Y-7447600D02*
X10916600Y-7487600D01*
X10916600Y-7447600D02*
X10876600Y-7487600D01*
X10993440Y-12669840D02*
X11033440Y-12709840D01*
X11033440Y-12669840D02*
X10993440Y-12709840D01*
X11191560Y-12654600D02*
X11231560Y-12694600D01*
X11231560Y-12654600D02*
X11191560Y-12694600D01*
X11470960Y-12664760D02*
X11510960Y-12704760D01*
X11510960Y-12664760D02*
X11470960Y-12704760D01*
X11633520Y-7300280D02*
X11673520Y-7340280D01*
X11673520Y-7300280D02*
X11633520Y-7340280D01*
X11633520Y-12664760D02*
X11673520Y-12704760D01*
X11673520Y-12664760D02*
X11633520Y-12704760D01*
X11755440Y-12664760D02*
X11795440Y-12704760D01*
X11795440Y-12664760D02*
X11755440Y-12704760D01*
X11882440Y-7300280D02*
X11922440Y-7340280D01*
X11922440Y-7300280D02*
X11882440Y-7340280D01*
X11902760Y-11450640D02*
X11942760Y-11490640D01*
X11942760Y-11450640D02*
X11902760Y-11490640D01*
X12173014Y-11830626D02*
X12213014Y-11870626D01*
X12213014Y-11830626D02*
X12173014Y-11870626D01*
X12390440Y-7320600D02*
X12430440Y-7360600D01*
X12430440Y-7320600D02*
X12390440Y-7360600D01*
X12426000Y-12172000D02*
X12466000Y-12212000D01*
X12466000Y-12172000D02*
X12426000Y-12212000D01*
X12588560Y-7300280D02*
X12628560Y-7340280D01*
X12628560Y-7300280D02*
X12588560Y-7340280D01*
X12655614Y-12511346D02*
X12695614Y-12551346D01*
X12695614Y-12511346D02*
X12655614Y-12551346D01*
X12730800Y-12639360D02*
X12770800Y-12679360D01*
X12770800Y-12639360D02*
X12730800Y-12679360D01*
X12873040Y-7264720D02*
X12913040Y-7304720D01*
X12913040Y-7264720D02*
X12873040Y-7304720D01*
X12959400Y-11201720D02*
X12999400Y-11241720D01*
X12999400Y-11201720D02*
X12959400Y-11241720D01*
X13147360Y-7274880D02*
X13187360Y-7314880D01*
X13187360Y-7274880D02*
X13147360Y-7314880D01*
X13675680Y-7285040D02*
X13715680Y-7325040D01*
X13715680Y-7285040D02*
X13675680Y-7325040D01*
X13914440Y-7224080D02*
X13954440Y-7264080D01*
X13954440Y-7224080D02*
X13914440Y-7264080D01*
X9722480Y-10863040D02*
G75*
G02*
X9642480Y-10863040I-40000J0D01*
G01*
X9642480Y-10863040D02*
G75*
G02*
X9722480Y-10863040I40000J0D01*
G01*
X9722480Y-11113040D02*
G75*
G02*
X9642480Y-11113040I-40000J0D01*
G01*
X9642480Y-11113040D02*
G75*
G02*
X9722480Y-11113040I40000J0D01*
G01*
X9935840Y-9845040D02*
G75*
G02*
X9855840Y-9845040I-40000J0D01*
G01*
X9855840Y-9845040D02*
G75*
G02*
X9935840Y-9845040I40000J0D01*
G01*
X9935840Y-10607040D02*
G75*
G02*
X9855840Y-10607040I-40000J0D01*
G01*
X9855840Y-10607040D02*
G75*
G02*
X9935840Y-10607040I40000J0D01*
G01*
X10189840Y-9845040D02*
G75*
G02*
X10109840Y-9845040I-40000J0D01*
G01*
X10109840Y-9845040D02*
G75*
G02*
X10189840Y-9845040I40000J0D01*
G01*
X10189840Y-10607040D02*
G75*
G02*
X10109840Y-10607040I-40000J0D01*
G01*
X10109840Y-10607040D02*
G75*
G02*
X10189840Y-10607040I40000J0D01*
G01*
X10443840Y-9845040D02*
G75*
G02*
X10363840Y-9845040I-40000J0D01*
G01*
X10363840Y-9845040D02*
G75*
G02*
X10443840Y-9845040I40000J0D01*
G01*
X10443840Y-10607040D02*
G75*
G02*
X10363840Y-10607040I-40000J0D01*
G01*
X10363840Y-10607040D02*
G75*
G02*
X10443840Y-10607040I40000J0D01*
G01*
X10697840Y-9845040D02*
G75*
G02*
X10617840Y-9845040I-40000J0D01*
G01*
X10617840Y-9845040D02*
G75*
G02*
X10697840Y-9845040I40000J0D01*
G01*
X10697840Y-10607040D02*
G75*
G02*
X10617840Y-10607040I-40000J0D01*
G01*
X10617840Y-10607040D02*
G75*
G02*
X10697840Y-10607040I40000J0D01*
G01*
X10951840Y-9845040D02*
G75*
G02*
X10871840Y-9845040I-40000J0D01*
G01*
X10871840Y-9845040D02*
G75*
G02*
X10951840Y-9845040I40000J0D01*
G01*
X10951840Y-10607040D02*
G75*
G02*
X10871840Y-10607040I-40000J0D01*
G01*
X10871840Y-10607040D02*
G75*
G02*
X10951840Y-10607040I40000J0D01*
G01*
X11205840Y-9845040D02*
G75*
G02*
X11125840Y-9845040I-40000J0D01*
G01*
X11125840Y-9845040D02*
G75*
G02*
X11205840Y-9845040I40000J0D01*
G01*
X11205840Y-10607040D02*
G75*
G02*
X11125840Y-10607040I-40000J0D01*
G01*
X11125840Y-10607040D02*
G75*
G02*
X11205840Y-10607040I40000J0D01*
G01*
X11459840Y-9845040D02*
G75*
G02*
X11379840Y-9845040I-40000J0D01*
G01*
X11379840Y-9845040D02*
G75*
G02*
X11459840Y-9845040I40000J0D01*
G01*
X11459840Y-10607040D02*
G75*
G02*
X11379840Y-10607040I-40000J0D01*
G01*
X11379840Y-10607040D02*
G75*
G02*
X11459840Y-10607040I40000J0D01*
G01*
X11713840Y-9845040D02*
G75*
G02*
X11633840Y-9845040I-40000J0D01*
G01*
X11633840Y-9845040D02*
G75*
G02*
X11713840Y-9845040I40000J0D01*
G01*
X11713840Y-10607040D02*
G75*
G02*
X11633840Y-10607040I-40000J0D01*
G01*
X11633840Y-10607040D02*
G75*
G02*
X11713840Y-10607040I40000J0D01*
G01*
X11967840Y-9845040D02*
G75*
G02*
X11887840Y-9845040I-40000J0D01*
G01*
X11887840Y-9845040D02*
G75*
G02*
X11967840Y-9845040I40000J0D01*
G01*
X11967840Y-10607040D02*
G75*
G02*
X11887840Y-10607040I-40000J0D01*
G01*
X11887840Y-10607040D02*
G75*
G02*
X11967840Y-10607040I40000J0D01*
G01*
X12221840Y-9845040D02*
G75*
G02*
X12141840Y-9845040I-40000J0D01*
G01*
X12141840Y-9845040D02*
G75*
G02*
X12221840Y-9845040I40000J0D01*
G01*
X12221840Y-10607040D02*
G75*
G02*
X12141840Y-10607040I-40000J0D01*
G01*
X12141840Y-10607040D02*
G75*
G02*
X12221840Y-10607040I40000J0D01*
G01*
X12531720Y-11572240D02*
G75*
G02*
X12451720Y-11572240I-40000J0D01*
G01*
X12451720Y-11572240D02*
G75*
G02*
X12531720Y-11572240I40000J0D01*
G01*
X12541880Y-9667240D02*
G75*
G02*
X12461880Y-9667240I-40000J0D01*
G01*
X12461880Y-9667240D02*
G75*
G02*
X12541880Y-9667240I40000J0D01*
G01*
X12541880Y-9921240D02*
G75*
G02*
X12461880Y-9921240I-40000J0D01*
G01*
X12461880Y-9921240D02*
G75*
G02*
X12541880Y-9921240I40000J0D01*
G01*
X12541880Y-10175240D02*
G75*
G02*
X12461880Y-10175240I-40000J0D01*
G01*
X12461880Y-10175240D02*
G75*
G02*
X12541880Y-10175240I40000J0D01*
G01*
X12541880Y-10429240D02*
G75*
G02*
X12461880Y-10429240I-40000J0D01*
G01*
X12461880Y-10429240D02*
G75*
G02*
X12541880Y-10429240I40000J0D01*
G01*
X12541880Y-10683240D02*
G75*
G02*
X12461880Y-10683240I-40000J0D01*
G01*
X12461880Y-10683240D02*
G75*
G02*
X12541880Y-10683240I40000J0D01*
G01*
X12541880Y-10937240D02*
G75*
G02*
X12461880Y-10937240I-40000J0D01*
G01*
X12461880Y-10937240D02*
G75*
G02*
X12541880Y-10937240I40000J0D01*
G01*
X12541880Y-11191240D02*
G75*
G02*
X12461880Y-11191240I-40000J0D01*
G01*
X12461880Y-11191240D02*
G75*
G02*
X12541880Y-11191240I40000J0D01*
G01*
X12781720Y-11572240D02*
G75*
G02*
X12701720Y-11572240I-40000J0D01*
G01*
X12701720Y-11572240D02*
G75*
G02*
X12781720Y-11572240I40000J0D01*
G01*
X13303880Y-9667240D02*
G75*
G02*
X13223880Y-9667240I-40000J0D01*
G01*
X13223880Y-9667240D02*
G75*
G02*
X13303880Y-9667240I40000J0D01*
G01*
X13303880Y-9921240D02*
G75*
G02*
X13223880Y-9921240I-40000J0D01*
G01*
X13223880Y-9921240D02*
G75*
G02*
X13303880Y-9921240I40000J0D01*
G01*
X13303880Y-10175240D02*
G75*
G02*
X13223880Y-10175240I-40000J0D01*
G01*
X13223880Y-10175240D02*
G75*
G02*
X13303880Y-10175240I40000J0D01*
G01*
X13303880Y-10429240D02*
G75*
G02*
X13223880Y-10429240I-40000J0D01*
G01*
X13223880Y-10429240D02*
G75*
G02*
X13303880Y-10429240I40000J0D01*
G01*
X13303880Y-10683240D02*
G75*
G02*
X13223880Y-10683240I-40000J0D01*
G01*
X13223880Y-10683240D02*
G75*
G02*
X13303880Y-10683240I40000J0D01*
G01*
X13303880Y-10937240D02*
G75*
G02*
X13223880Y-10937240I-40000J0D01*
G01*
X13223880Y-10937240D02*
G75*
G02*
X13303880Y-10937240I40000J0D01*
G01*
X13303880Y-11191240D02*
G75*
G02*
X13223880Y-11191240I-40000J0D01*
G01*
X13223880Y-11191240D02*
G75*
G02*
X13303880Y-11191240I40000J0D01*
G01*
X13744760Y-9382760D02*
G75*
G02*
X13664760Y-9382760I-40000J0D01*
G01*
X13664760Y-9382760D02*
G75*
G02*
X13744760Y-9382760I40000J0D01*
G01*
X13994760Y-9382760D02*
G75*
G02*
X13914760Y-9382760I-40000J0D01*
G01*
X13914760Y-9382760D02*
G75*
G02*
X13994760Y-9382760I40000J0D01*
G01*
D11*
X9051391Y-13850124D02*
X9051391Y-13650124D01*
X9051391Y-13650124D02*
X9099010Y-13650124D01*
X9099010Y-13650124D02*
X9127582Y-13659648D01*
X9127582Y-13659648D02*
X9146629Y-13678695D01*
X9146629Y-13678695D02*
X9156153Y-13697743D01*
X9156153Y-13697743D02*
X9165677Y-13735838D01*
X9165677Y-13735838D02*
X9165677Y-13764409D01*
X9165677Y-13764409D02*
X9156153Y-13802505D01*
X9156153Y-13802505D02*
X9146629Y-13821552D01*
X9146629Y-13821552D02*
X9127582Y-13840600D01*
X9127582Y-13840600D02*
X9099010Y-13850124D01*
X9099010Y-13850124D02*
X9051391Y-13850124D01*
X9251391Y-13850124D02*
X9251391Y-13716790D01*
X9251391Y-13754886D02*
X9260915Y-13735838D01*
X9260915Y-13735838D02*
X9270439Y-13726314D01*
X9270439Y-13726314D02*
X9289487Y-13716790D01*
X9289487Y-13716790D02*
X9308534Y-13716790D01*
X9375201Y-13850124D02*
X9375201Y-13716790D01*
X9375201Y-13650124D02*
X9365677Y-13659648D01*
X9365677Y-13659648D02*
X9375201Y-13669171D01*
X9375201Y-13669171D02*
X9384725Y-13659648D01*
X9384725Y-13659648D02*
X9375201Y-13650124D01*
X9375201Y-13650124D02*
X9375201Y-13669171D01*
X9499010Y-13850124D02*
X9479963Y-13840600D01*
X9479963Y-13840600D02*
X9470439Y-13821552D01*
X9470439Y-13821552D02*
X9470439Y-13650124D01*
X9603772Y-13850124D02*
X9584725Y-13840600D01*
X9584725Y-13840600D02*
X9575201Y-13821552D01*
X9575201Y-13821552D02*
X9575201Y-13650124D01*
X9832344Y-13850124D02*
X9832344Y-13650124D01*
X9832344Y-13650124D02*
X9899010Y-13792981D01*
X9899010Y-13792981D02*
X9965677Y-13650124D01*
X9965677Y-13650124D02*
X9965677Y-13850124D01*
X10146629Y-13850124D02*
X10146629Y-13745362D01*
X10146629Y-13745362D02*
X10137106Y-13726314D01*
X10137106Y-13726314D02*
X10118058Y-13716790D01*
X10118058Y-13716790D02*
X10079963Y-13716790D01*
X10079963Y-13716790D02*
X10060915Y-13726314D01*
X10146629Y-13840600D02*
X10127582Y-13850124D01*
X10127582Y-13850124D02*
X10079963Y-13850124D01*
X10079963Y-13850124D02*
X10060915Y-13840600D01*
X10060915Y-13840600D02*
X10051391Y-13821552D01*
X10051391Y-13821552D02*
X10051391Y-13802505D01*
X10051391Y-13802505D02*
X10060915Y-13783457D01*
X10060915Y-13783457D02*
X10079963Y-13773933D01*
X10079963Y-13773933D02*
X10127582Y-13773933D01*
X10127582Y-13773933D02*
X10146629Y-13764409D01*
X10241868Y-13716790D02*
X10241868Y-13916790D01*
X10241868Y-13726314D02*
X10260915Y-13716790D01*
X10260915Y-13716790D02*
X10299010Y-13716790D01*
X10299010Y-13716790D02*
X10318058Y-13726314D01*
X10318058Y-13726314D02*
X10327582Y-13735838D01*
X10327582Y-13735838D02*
X10337106Y-13754886D01*
X10337106Y-13754886D02*
X10337106Y-13812028D01*
X10337106Y-13812028D02*
X10327582Y-13831076D01*
X10327582Y-13831076D02*
X10318058Y-13840600D01*
X10318058Y-13840600D02*
X10299010Y-13850124D01*
X10299010Y-13850124D02*
X10260915Y-13850124D01*
X10260915Y-13850124D02*
X10241868Y-13840600D01*
X10422820Y-13831076D02*
X10432344Y-13840600D01*
X10432344Y-13840600D02*
X10422820Y-13850124D01*
X10422820Y-13850124D02*
X10413296Y-13840600D01*
X10413296Y-13840600D02*
X10422820Y-13831076D01*
X10422820Y-13831076D02*
X10422820Y-13850124D01*
X10422820Y-13726314D02*
X10432344Y-13735838D01*
X10432344Y-13735838D02*
X10422820Y-13745362D01*
X10422820Y-13745362D02*
X10413296Y-13735838D01*
X10413296Y-13735838D02*
X10422820Y-13726314D01*
X10422820Y-13726314D02*
X10422820Y-13745362D01*
D12*
X8750615Y-14158640D02*
X8790615Y-14198640D01*
X8790615Y-14158640D02*
X8750615Y-14198640D01*
D11*
X9089487Y-14070124D02*
X9108534Y-14070124D01*
X9108534Y-14070124D02*
X9127582Y-14079648D01*
X9127582Y-14079648D02*
X9137106Y-14089171D01*
X9137106Y-14089171D02*
X9146629Y-14108219D01*
X9146629Y-14108219D02*
X9156153Y-14146314D01*
X9156153Y-14146314D02*
X9156153Y-14193933D01*
X9156153Y-14193933D02*
X9146629Y-14232028D01*
X9146629Y-14232028D02*
X9137106Y-14251076D01*
X9137106Y-14251076D02*
X9127582Y-14260600D01*
X9127582Y-14260600D02*
X9108534Y-14270124D01*
X9108534Y-14270124D02*
X9089487Y-14270124D01*
X9089487Y-14270124D02*
X9070439Y-14260600D01*
X9070439Y-14260600D02*
X9060915Y-14251076D01*
X9060915Y-14251076D02*
X9051391Y-14232028D01*
X9051391Y-14232028D02*
X9041868Y-14193933D01*
X9041868Y-14193933D02*
X9041868Y-14146314D01*
X9041868Y-14146314D02*
X9051391Y-14108219D01*
X9051391Y-14108219D02*
X9060915Y-14089171D01*
X9060915Y-14089171D02*
X9070439Y-14079648D01*
X9070439Y-14079648D02*
X9089487Y-14070124D01*
X9241868Y-14251076D02*
X9251391Y-14260600D01*
X9251391Y-14260600D02*
X9241868Y-14270124D01*
X9241868Y-14270124D02*
X9232344Y-14260600D01*
X9232344Y-14260600D02*
X9241868Y-14251076D01*
X9241868Y-14251076D02*
X9241868Y-14270124D01*
X9422820Y-14136790D02*
X9422820Y-14270124D01*
X9375201Y-14060600D02*
X9327582Y-14203457D01*
X9327582Y-14203457D02*
X9451391Y-14203457D01*
X9565677Y-14070124D02*
X9584725Y-14070124D01*
X9584725Y-14070124D02*
X9603772Y-14079648D01*
X9603772Y-14079648D02*
X9613296Y-14089171D01*
X9613296Y-14089171D02*
X9622820Y-14108219D01*
X9622820Y-14108219D02*
X9632344Y-14146314D01*
X9632344Y-14146314D02*
X9632344Y-14193933D01*
X9632344Y-14193933D02*
X9622820Y-14232028D01*
X9622820Y-14232028D02*
X9613296Y-14251076D01*
X9613296Y-14251076D02*
X9603772Y-14260600D01*
X9603772Y-14260600D02*
X9584725Y-14270124D01*
X9584725Y-14270124D02*
X9565677Y-14270124D01*
X9565677Y-14270124D02*
X9546629Y-14260600D01*
X9546629Y-14260600D02*
X9537106Y-14251076D01*
X9537106Y-14251076D02*
X9527582Y-14232028D01*
X9527582Y-14232028D02*
X9518058Y-14193933D01*
X9518058Y-14193933D02*
X9518058Y-14146314D01*
X9518058Y-14146314D02*
X9527582Y-14108219D01*
X9527582Y-14108219D02*
X9537106Y-14089171D01*
X9537106Y-14089171D02*
X9546629Y-14079648D01*
X9546629Y-14079648D02*
X9565677Y-14070124D01*
X9756153Y-14070124D02*
X9775201Y-14070124D01*
X9775201Y-14070124D02*
X9794249Y-14079648D01*
X9794249Y-14079648D02*
X9803772Y-14089171D01*
X9803772Y-14089171D02*
X9813296Y-14108219D01*
X9813296Y-14108219D02*
X9822820Y-14146314D01*
X9822820Y-14146314D02*
X9822820Y-14193933D01*
X9822820Y-14193933D02*
X9813296Y-14232028D01*
X9813296Y-14232028D02*
X9803772Y-14251076D01*
X9803772Y-14251076D02*
X9794249Y-14260600D01*
X9794249Y-14260600D02*
X9775201Y-14270124D01*
X9775201Y-14270124D02*
X9756153Y-14270124D01*
X9756153Y-14270124D02*
X9737106Y-14260600D01*
X9737106Y-14260600D02*
X9727582Y-14251076D01*
X9727582Y-14251076D02*
X9718058Y-14232028D01*
X9718058Y-14232028D02*
X9708534Y-14193933D01*
X9708534Y-14193933D02*
X9708534Y-14146314D01*
X9708534Y-14146314D02*
X9718058Y-14108219D01*
X9718058Y-14108219D02*
X9727582Y-14089171D01*
X9727582Y-14089171D02*
X9737106Y-14079648D01*
X9737106Y-14079648D02*
X9756153Y-14070124D01*
X9908534Y-14270124D02*
X9908534Y-14136790D01*
X9908534Y-14155838D02*
X9918058Y-14146314D01*
X9918058Y-14146314D02*
X9937106Y-14136790D01*
X9937106Y-14136790D02*
X9965677Y-14136790D01*
X9965677Y-14136790D02*
X9984725Y-14146314D01*
X9984725Y-14146314D02*
X9994249Y-14165362D01*
X9994249Y-14165362D02*
X9994249Y-14270124D01*
X9994249Y-14165362D02*
X10003772Y-14146314D01*
X10003772Y-14146314D02*
X10022820Y-14136790D01*
X10022820Y-14136790D02*
X10051391Y-14136790D01*
X10051391Y-14136790D02*
X10070439Y-14146314D01*
X10070439Y-14146314D02*
X10079963Y-14165362D01*
X10079963Y-14165362D02*
X10079963Y-14270124D01*
X10175201Y-14270124D02*
X10175201Y-14136790D01*
X10175201Y-14155838D02*
X10184725Y-14146314D01*
X10184725Y-14146314D02*
X10203772Y-14136790D01*
X10203772Y-14136790D02*
X10232344Y-14136790D01*
X10232344Y-14136790D02*
X10251391Y-14146314D01*
X10251391Y-14146314D02*
X10260915Y-14165362D01*
X10260915Y-14165362D02*
X10260915Y-14270124D01*
X10260915Y-14165362D02*
X10270439Y-14146314D01*
X10270439Y-14146314D02*
X10289487Y-14136790D01*
X10289487Y-14136790D02*
X10318058Y-14136790D01*
X10318058Y-14136790D02*
X10337106Y-14146314D01*
X10337106Y-14146314D02*
X10346630Y-14165362D01*
X10346630Y-14165362D02*
X10346630Y-14270124D01*
X10737106Y-14060600D02*
X10565677Y-14317743D01*
X10994249Y-14070124D02*
X11013296Y-14070124D01*
X11013296Y-14070124D02*
X11032344Y-14079648D01*
X11032344Y-14079648D02*
X11041868Y-14089171D01*
X11041868Y-14089171D02*
X11051392Y-14108219D01*
X11051392Y-14108219D02*
X11060915Y-14146314D01*
X11060915Y-14146314D02*
X11060915Y-14193933D01*
X11060915Y-14193933D02*
X11051392Y-14232028D01*
X11051392Y-14232028D02*
X11041868Y-14251076D01*
X11041868Y-14251076D02*
X11032344Y-14260600D01*
X11032344Y-14260600D02*
X11013296Y-14270124D01*
X11013296Y-14270124D02*
X10994249Y-14270124D01*
X10994249Y-14270124D02*
X10975201Y-14260600D01*
X10975201Y-14260600D02*
X10965677Y-14251076D01*
X10965677Y-14251076D02*
X10956153Y-14232028D01*
X10956153Y-14232028D02*
X10946630Y-14193933D01*
X10946630Y-14193933D02*
X10946630Y-14146314D01*
X10946630Y-14146314D02*
X10956153Y-14108219D01*
X10956153Y-14108219D02*
X10965677Y-14089171D01*
X10965677Y-14089171D02*
X10975201Y-14079648D01*
X10975201Y-14079648D02*
X10994249Y-14070124D01*
X11146630Y-14251076D02*
X11156153Y-14260600D01*
X11156153Y-14260600D02*
X11146630Y-14270124D01*
X11146630Y-14270124D02*
X11137106Y-14260600D01*
X11137106Y-14260600D02*
X11146630Y-14251076D01*
X11146630Y-14251076D02*
X11146630Y-14270124D01*
X11279963Y-14070124D02*
X11299011Y-14070124D01*
X11299011Y-14070124D02*
X11318058Y-14079648D01*
X11318058Y-14079648D02*
X11327582Y-14089171D01*
X11327582Y-14089171D02*
X11337106Y-14108219D01*
X11337106Y-14108219D02*
X11346630Y-14146314D01*
X11346630Y-14146314D02*
X11346630Y-14193933D01*
X11346630Y-14193933D02*
X11337106Y-14232028D01*
X11337106Y-14232028D02*
X11327582Y-14251076D01*
X11327582Y-14251076D02*
X11318058Y-14260600D01*
X11318058Y-14260600D02*
X11299011Y-14270124D01*
X11299011Y-14270124D02*
X11279963Y-14270124D01*
X11279963Y-14270124D02*
X11260915Y-14260600D01*
X11260915Y-14260600D02*
X11251391Y-14251076D01*
X11251391Y-14251076D02*
X11241868Y-14232028D01*
X11241868Y-14232028D02*
X11232344Y-14193933D01*
X11232344Y-14193933D02*
X11232344Y-14146314D01*
X11232344Y-14146314D02*
X11241868Y-14108219D01*
X11241868Y-14108219D02*
X11251391Y-14089171D01*
X11251391Y-14089171D02*
X11260915Y-14079648D01*
X11260915Y-14079648D02*
X11279963Y-14070124D01*
X11537106Y-14270124D02*
X11422820Y-14270124D01*
X11479963Y-14270124D02*
X11479963Y-14070124D01*
X11479963Y-14070124D02*
X11460915Y-14098695D01*
X11460915Y-14098695D02*
X11441868Y-14117743D01*
X11441868Y-14117743D02*
X11422820Y-14127267D01*
X11718058Y-14070124D02*
X11622820Y-14070124D01*
X11622820Y-14070124D02*
X11613296Y-14165362D01*
X11613296Y-14165362D02*
X11622820Y-14155838D01*
X11622820Y-14155838D02*
X11641868Y-14146314D01*
X11641868Y-14146314D02*
X11689487Y-14146314D01*
X11689487Y-14146314D02*
X11708534Y-14155838D01*
X11708534Y-14155838D02*
X11718058Y-14165362D01*
X11718058Y-14165362D02*
X11727582Y-14184409D01*
X11727582Y-14184409D02*
X11727582Y-14232028D01*
X11727582Y-14232028D02*
X11718058Y-14251076D01*
X11718058Y-14251076D02*
X11708534Y-14260600D01*
X11708534Y-14260600D02*
X11689487Y-14270124D01*
X11689487Y-14270124D02*
X11641868Y-14270124D01*
X11641868Y-14270124D02*
X11622820Y-14260600D01*
X11622820Y-14260600D02*
X11613296Y-14251076D01*
X11794249Y-14070124D02*
X11927582Y-14070124D01*
X11927582Y-14070124D02*
X11841868Y-14270124D01*
X11994249Y-14070124D02*
X11994249Y-14108219D01*
X12070439Y-14070124D02*
X12070439Y-14108219D01*
X12365677Y-14346314D02*
X12356153Y-14336790D01*
X12356153Y-14336790D02*
X12337106Y-14308219D01*
X12337106Y-14308219D02*
X12327582Y-14289171D01*
X12327582Y-14289171D02*
X12318058Y-14260600D01*
X12318058Y-14260600D02*
X12308534Y-14212981D01*
X12308534Y-14212981D02*
X12308534Y-14174886D01*
X12308534Y-14174886D02*
X12318058Y-14127267D01*
X12318058Y-14127267D02*
X12327582Y-14098695D01*
X12327582Y-14098695D02*
X12337106Y-14079648D01*
X12337106Y-14079648D02*
X12356153Y-14051076D01*
X12356153Y-14051076D02*
X12365677Y-14041552D01*
X12432344Y-14089171D02*
X12441868Y-14079648D01*
X12441868Y-14079648D02*
X12460915Y-14070124D01*
X12460915Y-14070124D02*
X12508534Y-14070124D01*
X12508534Y-14070124D02*
X12527582Y-14079648D01*
X12527582Y-14079648D02*
X12537106Y-14089171D01*
X12537106Y-14089171D02*
X12546630Y-14108219D01*
X12546630Y-14108219D02*
X12546630Y-14127267D01*
X12546630Y-14127267D02*
X12537106Y-14155838D01*
X12537106Y-14155838D02*
X12422820Y-14270124D01*
X12422820Y-14270124D02*
X12546630Y-14270124D01*
X12613296Y-14070124D02*
X12746630Y-14070124D01*
X12746630Y-14070124D02*
X12660915Y-14270124D01*
X12975201Y-14270124D02*
X12975201Y-14070124D01*
X13060915Y-14270124D02*
X13060915Y-14165362D01*
X13060915Y-14165362D02*
X13051392Y-14146314D01*
X13051392Y-14146314D02*
X13032344Y-14136790D01*
X13032344Y-14136790D02*
X13003773Y-14136790D01*
X13003773Y-14136790D02*
X12984725Y-14146314D01*
X12984725Y-14146314D02*
X12975201Y-14155838D01*
X13184725Y-14270124D02*
X13165677Y-14260600D01*
X13165677Y-14260600D02*
X13156154Y-14251076D01*
X13156154Y-14251076D02*
X13146630Y-14232028D01*
X13146630Y-14232028D02*
X13146630Y-14174886D01*
X13146630Y-14174886D02*
X13156154Y-14155838D01*
X13156154Y-14155838D02*
X13165677Y-14146314D01*
X13165677Y-14146314D02*
X13184725Y-14136790D01*
X13184725Y-14136790D02*
X13213296Y-14136790D01*
X13213296Y-14136790D02*
X13232344Y-14146314D01*
X13232344Y-14146314D02*
X13241868Y-14155838D01*
X13241868Y-14155838D02*
X13251392Y-14174886D01*
X13251392Y-14174886D02*
X13251392Y-14232028D01*
X13251392Y-14232028D02*
X13241868Y-14251076D01*
X13241868Y-14251076D02*
X13232344Y-14260600D01*
X13232344Y-14260600D02*
X13213296Y-14270124D01*
X13213296Y-14270124D02*
X13184725Y-14270124D01*
X13365677Y-14270124D02*
X13346630Y-14260600D01*
X13346630Y-14260600D02*
X13337106Y-14241552D01*
X13337106Y-14241552D02*
X13337106Y-14070124D01*
X13518058Y-14260600D02*
X13499011Y-14270124D01*
X13499011Y-14270124D02*
X13460915Y-14270124D01*
X13460915Y-14270124D02*
X13441868Y-14260600D01*
X13441868Y-14260600D02*
X13432344Y-14241552D01*
X13432344Y-14241552D02*
X13432344Y-14165362D01*
X13432344Y-14165362D02*
X13441868Y-14146314D01*
X13441868Y-14146314D02*
X13460915Y-14136790D01*
X13460915Y-14136790D02*
X13499011Y-14136790D01*
X13499011Y-14136790D02*
X13518058Y-14146314D01*
X13518058Y-14146314D02*
X13527582Y-14165362D01*
X13527582Y-14165362D02*
X13527582Y-14184409D01*
X13527582Y-14184409D02*
X13432344Y-14203457D01*
X13603773Y-14260600D02*
X13622820Y-14270124D01*
X13622820Y-14270124D02*
X13660915Y-14270124D01*
X13660915Y-14270124D02*
X13679963Y-14260600D01*
X13679963Y-14260600D02*
X13689487Y-14241552D01*
X13689487Y-14241552D02*
X13689487Y-14232028D01*
X13689487Y-14232028D02*
X13679963Y-14212981D01*
X13679963Y-14212981D02*
X13660915Y-14203457D01*
X13660915Y-14203457D02*
X13632344Y-14203457D01*
X13632344Y-14203457D02*
X13613296Y-14193933D01*
X13613296Y-14193933D02*
X13603773Y-14174886D01*
X13603773Y-14174886D02*
X13603773Y-14165362D01*
X13603773Y-14165362D02*
X13613296Y-14146314D01*
X13613296Y-14146314D02*
X13632344Y-14136790D01*
X13632344Y-14136790D02*
X13660915Y-14136790D01*
X13660915Y-14136790D02*
X13679963Y-14146314D01*
X13756154Y-14346314D02*
X13765677Y-14336790D01*
X13765677Y-14336790D02*
X13784725Y-14308219D01*
X13784725Y-14308219D02*
X13794249Y-14289171D01*
X13794249Y-14289171D02*
X13803773Y-14260600D01*
X13803773Y-14260600D02*
X13813296Y-14212981D01*
X13813296Y-14212981D02*
X13813296Y-14174886D01*
X13813296Y-14174886D02*
X13803773Y-14127267D01*
X13803773Y-14127267D02*
X13794249Y-14098695D01*
X13794249Y-14098695D02*
X13784725Y-14079648D01*
X13784725Y-14079648D02*
X13765677Y-14051076D01*
X13765677Y-14051076D02*
X13756154Y-14041552D01*
D12*
X8790615Y-14442640D02*
G75*
G02*
X8710615Y-14442640I-40000J0D01*
G01*
X8710615Y-14442640D02*
G75*
G02*
X8790615Y-14442640I40000J0D01*
G01*
D11*
X9089487Y-14334124D02*
X9108534Y-14334124D01*
X9108534Y-14334124D02*
X9127582Y-14343648D01*
X9127582Y-14343648D02*
X9137106Y-14353171D01*
X9137106Y-14353171D02*
X9146629Y-14372219D01*
X9146629Y-14372219D02*
X9156153Y-14410314D01*
X9156153Y-14410314D02*
X9156153Y-14457933D01*
X9156153Y-14457933D02*
X9146629Y-14496028D01*
X9146629Y-14496028D02*
X9137106Y-14515076D01*
X9137106Y-14515076D02*
X9127582Y-14524600D01*
X9127582Y-14524600D02*
X9108534Y-14534124D01*
X9108534Y-14534124D02*
X9089487Y-14534124D01*
X9089487Y-14534124D02*
X9070439Y-14524600D01*
X9070439Y-14524600D02*
X9060915Y-14515076D01*
X9060915Y-14515076D02*
X9051391Y-14496028D01*
X9051391Y-14496028D02*
X9041868Y-14457933D01*
X9041868Y-14457933D02*
X9041868Y-14410314D01*
X9041868Y-14410314D02*
X9051391Y-14372219D01*
X9051391Y-14372219D02*
X9060915Y-14353171D01*
X9060915Y-14353171D02*
X9070439Y-14343648D01*
X9070439Y-14343648D02*
X9089487Y-14334124D01*
X9241868Y-14515076D02*
X9251391Y-14524600D01*
X9251391Y-14524600D02*
X9241868Y-14534124D01*
X9241868Y-14534124D02*
X9232344Y-14524600D01*
X9232344Y-14524600D02*
X9241868Y-14515076D01*
X9241868Y-14515076D02*
X9241868Y-14534124D01*
X9365677Y-14419838D02*
X9346629Y-14410314D01*
X9346629Y-14410314D02*
X9337106Y-14400790D01*
X9337106Y-14400790D02*
X9327582Y-14381743D01*
X9327582Y-14381743D02*
X9327582Y-14372219D01*
X9327582Y-14372219D02*
X9337106Y-14353171D01*
X9337106Y-14353171D02*
X9346629Y-14343648D01*
X9346629Y-14343648D02*
X9365677Y-14334124D01*
X9365677Y-14334124D02*
X9403772Y-14334124D01*
X9403772Y-14334124D02*
X9422820Y-14343648D01*
X9422820Y-14343648D02*
X9432344Y-14353171D01*
X9432344Y-14353171D02*
X9441868Y-14372219D01*
X9441868Y-14372219D02*
X9441868Y-14381743D01*
X9441868Y-14381743D02*
X9432344Y-14400790D01*
X9432344Y-14400790D02*
X9422820Y-14410314D01*
X9422820Y-14410314D02*
X9403772Y-14419838D01*
X9403772Y-14419838D02*
X9365677Y-14419838D01*
X9365677Y-14419838D02*
X9346629Y-14429362D01*
X9346629Y-14429362D02*
X9337106Y-14438886D01*
X9337106Y-14438886D02*
X9327582Y-14457933D01*
X9327582Y-14457933D02*
X9327582Y-14496028D01*
X9327582Y-14496028D02*
X9337106Y-14515076D01*
X9337106Y-14515076D02*
X9346629Y-14524600D01*
X9346629Y-14524600D02*
X9365677Y-14534124D01*
X9365677Y-14534124D02*
X9403772Y-14534124D01*
X9403772Y-14534124D02*
X9422820Y-14524600D01*
X9422820Y-14524600D02*
X9432344Y-14515076D01*
X9432344Y-14515076D02*
X9441868Y-14496028D01*
X9441868Y-14496028D02*
X9441868Y-14457933D01*
X9441868Y-14457933D02*
X9432344Y-14438886D01*
X9432344Y-14438886D02*
X9422820Y-14429362D01*
X9422820Y-14429362D02*
X9403772Y-14419838D01*
X9565677Y-14334124D02*
X9584725Y-14334124D01*
X9584725Y-14334124D02*
X9603772Y-14343648D01*
X9603772Y-14343648D02*
X9613296Y-14353171D01*
X9613296Y-14353171D02*
X9622820Y-14372219D01*
X9622820Y-14372219D02*
X9632344Y-14410314D01*
X9632344Y-14410314D02*
X9632344Y-14457933D01*
X9632344Y-14457933D02*
X9622820Y-14496028D01*
X9622820Y-14496028D02*
X9613296Y-14515076D01*
X9613296Y-14515076D02*
X9603772Y-14524600D01*
X9603772Y-14524600D02*
X9584725Y-14534124D01*
X9584725Y-14534124D02*
X9565677Y-14534124D01*
X9565677Y-14534124D02*
X9546629Y-14524600D01*
X9546629Y-14524600D02*
X9537106Y-14515076D01*
X9537106Y-14515076D02*
X9527582Y-14496028D01*
X9527582Y-14496028D02*
X9518058Y-14457933D01*
X9518058Y-14457933D02*
X9518058Y-14410314D01*
X9518058Y-14410314D02*
X9527582Y-14372219D01*
X9527582Y-14372219D02*
X9537106Y-14353171D01*
X9537106Y-14353171D02*
X9546629Y-14343648D01*
X9546629Y-14343648D02*
X9565677Y-14334124D01*
X9756153Y-14334124D02*
X9775201Y-14334124D01*
X9775201Y-14334124D02*
X9794249Y-14343648D01*
X9794249Y-14343648D02*
X9803772Y-14353171D01*
X9803772Y-14353171D02*
X9813296Y-14372219D01*
X9813296Y-14372219D02*
X9822820Y-14410314D01*
X9822820Y-14410314D02*
X9822820Y-14457933D01*
X9822820Y-14457933D02*
X9813296Y-14496028D01*
X9813296Y-14496028D02*
X9803772Y-14515076D01*
X9803772Y-14515076D02*
X9794249Y-14524600D01*
X9794249Y-14524600D02*
X9775201Y-14534124D01*
X9775201Y-14534124D02*
X9756153Y-14534124D01*
X9756153Y-14534124D02*
X9737106Y-14524600D01*
X9737106Y-14524600D02*
X9727582Y-14515076D01*
X9727582Y-14515076D02*
X9718058Y-14496028D01*
X9718058Y-14496028D02*
X9708534Y-14457933D01*
X9708534Y-14457933D02*
X9708534Y-14410314D01*
X9708534Y-14410314D02*
X9718058Y-14372219D01*
X9718058Y-14372219D02*
X9727582Y-14353171D01*
X9727582Y-14353171D02*
X9737106Y-14343648D01*
X9737106Y-14343648D02*
X9756153Y-14334124D01*
X9908534Y-14534124D02*
X9908534Y-14400790D01*
X9908534Y-14419838D02*
X9918058Y-14410314D01*
X9918058Y-14410314D02*
X9937106Y-14400790D01*
X9937106Y-14400790D02*
X9965677Y-14400790D01*
X9965677Y-14400790D02*
X9984725Y-14410314D01*
X9984725Y-14410314D02*
X9994249Y-14429362D01*
X9994249Y-14429362D02*
X9994249Y-14534124D01*
X9994249Y-14429362D02*
X10003772Y-14410314D01*
X10003772Y-14410314D02*
X10022820Y-14400790D01*
X10022820Y-14400790D02*
X10051391Y-14400790D01*
X10051391Y-14400790D02*
X10070439Y-14410314D01*
X10070439Y-14410314D02*
X10079963Y-14429362D01*
X10079963Y-14429362D02*
X10079963Y-14534124D01*
X10175201Y-14534124D02*
X10175201Y-14400790D01*
X10175201Y-14419838D02*
X10184725Y-14410314D01*
X10184725Y-14410314D02*
X10203772Y-14400790D01*
X10203772Y-14400790D02*
X10232344Y-14400790D01*
X10232344Y-14400790D02*
X10251391Y-14410314D01*
X10251391Y-14410314D02*
X10260915Y-14429362D01*
X10260915Y-14429362D02*
X10260915Y-14534124D01*
X10260915Y-14429362D02*
X10270439Y-14410314D01*
X10270439Y-14410314D02*
X10289487Y-14400790D01*
X10289487Y-14400790D02*
X10318058Y-14400790D01*
X10318058Y-14400790D02*
X10337106Y-14410314D01*
X10337106Y-14410314D02*
X10346630Y-14429362D01*
X10346630Y-14429362D02*
X10346630Y-14534124D01*
X10737106Y-14324600D02*
X10565677Y-14581743D01*
X10994249Y-14334124D02*
X11013296Y-14334124D01*
X11013296Y-14334124D02*
X11032344Y-14343648D01*
X11032344Y-14343648D02*
X11041868Y-14353171D01*
X11041868Y-14353171D02*
X11051392Y-14372219D01*
X11051392Y-14372219D02*
X11060915Y-14410314D01*
X11060915Y-14410314D02*
X11060915Y-14457933D01*
X11060915Y-14457933D02*
X11051392Y-14496028D01*
X11051392Y-14496028D02*
X11041868Y-14515076D01*
X11041868Y-14515076D02*
X11032344Y-14524600D01*
X11032344Y-14524600D02*
X11013296Y-14534124D01*
X11013296Y-14534124D02*
X10994249Y-14534124D01*
X10994249Y-14534124D02*
X10975201Y-14524600D01*
X10975201Y-14524600D02*
X10965677Y-14515076D01*
X10965677Y-14515076D02*
X10956153Y-14496028D01*
X10956153Y-14496028D02*
X10946630Y-14457933D01*
X10946630Y-14457933D02*
X10946630Y-14410314D01*
X10946630Y-14410314D02*
X10956153Y-14372219D01*
X10956153Y-14372219D02*
X10965677Y-14353171D01*
X10965677Y-14353171D02*
X10975201Y-14343648D01*
X10975201Y-14343648D02*
X10994249Y-14334124D01*
X11146630Y-14515076D02*
X11156153Y-14524600D01*
X11156153Y-14524600D02*
X11146630Y-14534124D01*
X11146630Y-14534124D02*
X11137106Y-14524600D01*
X11137106Y-14524600D02*
X11146630Y-14515076D01*
X11146630Y-14515076D02*
X11146630Y-14534124D01*
X11279963Y-14334124D02*
X11299011Y-14334124D01*
X11299011Y-14334124D02*
X11318058Y-14343648D01*
X11318058Y-14343648D02*
X11327582Y-14353171D01*
X11327582Y-14353171D02*
X11337106Y-14372219D01*
X11337106Y-14372219D02*
X11346630Y-14410314D01*
X11346630Y-14410314D02*
X11346630Y-14457933D01*
X11346630Y-14457933D02*
X11337106Y-14496028D01*
X11337106Y-14496028D02*
X11327582Y-14515076D01*
X11327582Y-14515076D02*
X11318058Y-14524600D01*
X11318058Y-14524600D02*
X11299011Y-14534124D01*
X11299011Y-14534124D02*
X11279963Y-14534124D01*
X11279963Y-14534124D02*
X11260915Y-14524600D01*
X11260915Y-14524600D02*
X11251391Y-14515076D01*
X11251391Y-14515076D02*
X11241868Y-14496028D01*
X11241868Y-14496028D02*
X11232344Y-14457933D01*
X11232344Y-14457933D02*
X11232344Y-14410314D01*
X11232344Y-14410314D02*
X11241868Y-14372219D01*
X11241868Y-14372219D02*
X11251391Y-14353171D01*
X11251391Y-14353171D02*
X11260915Y-14343648D01*
X11260915Y-14343648D02*
X11279963Y-14334124D01*
X11413296Y-14334124D02*
X11537106Y-14334124D01*
X11537106Y-14334124D02*
X11470439Y-14410314D01*
X11470439Y-14410314D02*
X11499011Y-14410314D01*
X11499011Y-14410314D02*
X11518058Y-14419838D01*
X11518058Y-14419838D02*
X11527582Y-14429362D01*
X11527582Y-14429362D02*
X11537106Y-14448409D01*
X11537106Y-14448409D02*
X11537106Y-14496028D01*
X11537106Y-14496028D02*
X11527582Y-14515076D01*
X11527582Y-14515076D02*
X11518058Y-14524600D01*
X11518058Y-14524600D02*
X11499011Y-14534124D01*
X11499011Y-14534124D02*
X11441868Y-14534124D01*
X11441868Y-14534124D02*
X11422820Y-14524600D01*
X11422820Y-14524600D02*
X11413296Y-14515076D01*
X11727582Y-14534124D02*
X11613296Y-14534124D01*
X11670439Y-14534124D02*
X11670439Y-14334124D01*
X11670439Y-14334124D02*
X11651391Y-14362695D01*
X11651391Y-14362695D02*
X11632344Y-14381743D01*
X11632344Y-14381743D02*
X11613296Y-14391267D01*
X11908534Y-14334124D02*
X11813296Y-14334124D01*
X11813296Y-14334124D02*
X11803772Y-14429362D01*
X11803772Y-14429362D02*
X11813296Y-14419838D01*
X11813296Y-14419838D02*
X11832344Y-14410314D01*
X11832344Y-14410314D02*
X11879963Y-14410314D01*
X11879963Y-14410314D02*
X11899011Y-14419838D01*
X11899011Y-14419838D02*
X11908534Y-14429362D01*
X11908534Y-14429362D02*
X11918058Y-14448409D01*
X11918058Y-14448409D02*
X11918058Y-14496028D01*
X11918058Y-14496028D02*
X11908534Y-14515076D01*
X11908534Y-14515076D02*
X11899011Y-14524600D01*
X11899011Y-14524600D02*
X11879963Y-14534124D01*
X11879963Y-14534124D02*
X11832344Y-14534124D01*
X11832344Y-14534124D02*
X11813296Y-14524600D01*
X11813296Y-14524600D02*
X11803772Y-14515076D01*
X11994249Y-14334124D02*
X11994249Y-14372219D01*
X12070439Y-14334124D02*
X12070439Y-14372219D01*
X12365677Y-14610314D02*
X12356153Y-14600790D01*
X12356153Y-14600790D02*
X12337106Y-14572219D01*
X12337106Y-14572219D02*
X12327582Y-14553171D01*
X12327582Y-14553171D02*
X12318058Y-14524600D01*
X12318058Y-14524600D02*
X12308534Y-14476981D01*
X12308534Y-14476981D02*
X12308534Y-14438886D01*
X12308534Y-14438886D02*
X12318058Y-14391267D01*
X12318058Y-14391267D02*
X12327582Y-14362695D01*
X12327582Y-14362695D02*
X12337106Y-14343648D01*
X12337106Y-14343648D02*
X12356153Y-14315076D01*
X12356153Y-14315076D02*
X12365677Y-14305552D01*
X12527582Y-14400790D02*
X12527582Y-14534124D01*
X12479963Y-14324600D02*
X12432344Y-14467457D01*
X12432344Y-14467457D02*
X12556153Y-14467457D01*
X12670439Y-14334124D02*
X12689487Y-14334124D01*
X12689487Y-14334124D02*
X12708534Y-14343648D01*
X12708534Y-14343648D02*
X12718058Y-14353171D01*
X12718058Y-14353171D02*
X12727582Y-14372219D01*
X12727582Y-14372219D02*
X12737106Y-14410314D01*
X12737106Y-14410314D02*
X12737106Y-14457933D01*
X12737106Y-14457933D02*
X12727582Y-14496028D01*
X12727582Y-14496028D02*
X12718058Y-14515076D01*
X12718058Y-14515076D02*
X12708534Y-14524600D01*
X12708534Y-14524600D02*
X12689487Y-14534124D01*
X12689487Y-14534124D02*
X12670439Y-14534124D01*
X12670439Y-14534124D02*
X12651392Y-14524600D01*
X12651392Y-14524600D02*
X12641868Y-14515076D01*
X12641868Y-14515076D02*
X12632344Y-14496028D01*
X12632344Y-14496028D02*
X12622820Y-14457933D01*
X12622820Y-14457933D02*
X12622820Y-14410314D01*
X12622820Y-14410314D02*
X12632344Y-14372219D01*
X12632344Y-14372219D02*
X12641868Y-14353171D01*
X12641868Y-14353171D02*
X12651392Y-14343648D01*
X12651392Y-14343648D02*
X12670439Y-14334124D01*
X12975201Y-14534124D02*
X12975201Y-14334124D01*
X13060915Y-14534124D02*
X13060915Y-14429362D01*
X13060915Y-14429362D02*
X13051392Y-14410314D01*
X13051392Y-14410314D02*
X13032344Y-14400790D01*
X13032344Y-14400790D02*
X13003773Y-14400790D01*
X13003773Y-14400790D02*
X12984725Y-14410314D01*
X12984725Y-14410314D02*
X12975201Y-14419838D01*
X13184725Y-14534124D02*
X13165677Y-14524600D01*
X13165677Y-14524600D02*
X13156154Y-14515076D01*
X13156154Y-14515076D02*
X13146630Y-14496028D01*
X13146630Y-14496028D02*
X13146630Y-14438886D01*
X13146630Y-14438886D02*
X13156154Y-14419838D01*
X13156154Y-14419838D02*
X13165677Y-14410314D01*
X13165677Y-14410314D02*
X13184725Y-14400790D01*
X13184725Y-14400790D02*
X13213296Y-14400790D01*
X13213296Y-14400790D02*
X13232344Y-14410314D01*
X13232344Y-14410314D02*
X13241868Y-14419838D01*
X13241868Y-14419838D02*
X13251392Y-14438886D01*
X13251392Y-14438886D02*
X13251392Y-14496028D01*
X13251392Y-14496028D02*
X13241868Y-14515076D01*
X13241868Y-14515076D02*
X13232344Y-14524600D01*
X13232344Y-14524600D02*
X13213296Y-14534124D01*
X13213296Y-14534124D02*
X13184725Y-14534124D01*
X13365677Y-14534124D02*
X13346630Y-14524600D01*
X13346630Y-14524600D02*
X13337106Y-14505552D01*
X13337106Y-14505552D02*
X13337106Y-14334124D01*
X13518058Y-14524600D02*
X13499011Y-14534124D01*
X13499011Y-14534124D02*
X13460915Y-14534124D01*
X13460915Y-14534124D02*
X13441868Y-14524600D01*
X13441868Y-14524600D02*
X13432344Y-14505552D01*
X13432344Y-14505552D02*
X13432344Y-14429362D01*
X13432344Y-14429362D02*
X13441868Y-14410314D01*
X13441868Y-14410314D02*
X13460915Y-14400790D01*
X13460915Y-14400790D02*
X13499011Y-14400790D01*
X13499011Y-14400790D02*
X13518058Y-14410314D01*
X13518058Y-14410314D02*
X13527582Y-14429362D01*
X13527582Y-14429362D02*
X13527582Y-14448409D01*
X13527582Y-14448409D02*
X13432344Y-14467457D01*
X13603773Y-14524600D02*
X13622820Y-14534124D01*
X13622820Y-14534124D02*
X13660915Y-14534124D01*
X13660915Y-14534124D02*
X13679963Y-14524600D01*
X13679963Y-14524600D02*
X13689487Y-14505552D01*
X13689487Y-14505552D02*
X13689487Y-14496028D01*
X13689487Y-14496028D02*
X13679963Y-14476981D01*
X13679963Y-14476981D02*
X13660915Y-14467457D01*
X13660915Y-14467457D02*
X13632344Y-14467457D01*
X13632344Y-14467457D02*
X13613296Y-14457933D01*
X13613296Y-14457933D02*
X13603773Y-14438886D01*
X13603773Y-14438886D02*
X13603773Y-14429362D01*
X13603773Y-14429362D02*
X13613296Y-14410314D01*
X13613296Y-14410314D02*
X13632344Y-14400790D01*
X13632344Y-14400790D02*
X13660915Y-14400790D01*
X13660915Y-14400790D02*
X13679963Y-14410314D01*
X13756154Y-14610314D02*
X13765677Y-14600790D01*
X13765677Y-14600790D02*
X13784725Y-14572219D01*
X13784725Y-14572219D02*
X13794249Y-14553171D01*
X13794249Y-14553171D02*
X13803773Y-14524600D01*
X13803773Y-14524600D02*
X13813296Y-14476981D01*
X13813296Y-14476981D02*
X13813296Y-14438886D01*
X13813296Y-14438886D02*
X13803773Y-14391267D01*
X13803773Y-14391267D02*
X13794249Y-14362695D01*
X13794249Y-14362695D02*
X13784725Y-14343648D01*
X13784725Y-14343648D02*
X13765677Y-14315076D01*
X13765677Y-14315076D02*
X13756154Y-14305552D01*
M02*
