%TF.GenerationSoftware,KiCad,Pcbnew,8.0.8-8.0.8-0~ubuntu22.04.1*%
%TF.CreationDate,2025-02-03T18:01:07-05:00*%
%TF.ProjectId,2600cart,32363030-6361-4727-942e-6b696361645f,rev?*%
%TF.SameCoordinates,Original*%
%TF.FileFunction,Drillmap*%
%TF.FilePolarity,Positive*%
%FSLAX45Y45*%
G04 Gerber Fmt 4.5, Leading zero omitted, Abs format (unit mm)*
G04 Created by KiCad (PCBNEW 8.0.8-8.0.8-0~ubuntu22.04.1) date 2025-02-03 18:01:07*
%MOMM*%
%LPD*%
G01*
G04 APERTURE LIST*
%ADD10C,0.150000*%
%ADD11C,0.200000*%
%ADD12C,0.185000*%
%ADD13C,0.220000*%
G04 APERTURE END LIST*
D10*
X14300200Y-7213600D02*
X14168120Y-7274560D01*
X14168120Y-8691880D01*
X14295120Y-8737600D01*
X14295120Y-9628010D01*
X13434540Y-9639860D01*
X13434540Y-10038640D01*
X13622500Y-10038640D01*
X13622500Y-11468660D01*
X13188160Y-11943640D01*
X13188160Y-13531140D01*
X9934420Y-13531140D01*
X9934420Y-11943640D01*
X9495000Y-11468660D01*
X9495000Y-10038640D01*
X9682960Y-10038640D01*
X9682960Y-9639860D01*
X8798115Y-9635823D01*
X8800000Y-6650000D01*
X14300000Y-6650000D01*
X14300200Y-7213600D01*
D11*
D12*
X13531020Y-7630440D02*
X13716020Y-7815440D01*
X13716020Y-7630440D02*
X13531020Y-7815440D01*
X13531020Y-8115440D02*
X13716020Y-8300440D01*
X13716020Y-8115440D02*
X13531020Y-8300440D01*
D13*
X14036520Y-7692940D02*
G75*
G02*
X13816520Y-7692940I-110000J0D01*
G01*
X13816520Y-7692940D02*
G75*
G02*
X14036520Y-7692940I110000J0D01*
G01*
X14036520Y-8237940D02*
G75*
G02*
X13816520Y-8237940I-110000J0D01*
G01*
X13816520Y-8237940D02*
G75*
G02*
X14036520Y-8237940I110000J0D01*
G01*
D11*
X9051391Y-13850124D02*
X9051391Y-13650124D01*
X9051391Y-13650124D02*
X9099010Y-13650124D01*
X9099010Y-13650124D02*
X9127582Y-13659648D01*
X9127582Y-13659648D02*
X9146629Y-13678695D01*
X9146629Y-13678695D02*
X9156153Y-13697743D01*
X9156153Y-13697743D02*
X9165677Y-13735838D01*
X9165677Y-13735838D02*
X9165677Y-13764409D01*
X9165677Y-13764409D02*
X9156153Y-13802505D01*
X9156153Y-13802505D02*
X9146629Y-13821552D01*
X9146629Y-13821552D02*
X9127582Y-13840600D01*
X9127582Y-13840600D02*
X9099010Y-13850124D01*
X9099010Y-13850124D02*
X9051391Y-13850124D01*
X9251391Y-13850124D02*
X9251391Y-13716790D01*
X9251391Y-13754886D02*
X9260915Y-13735838D01*
X9260915Y-13735838D02*
X9270439Y-13726314D01*
X9270439Y-13726314D02*
X9289487Y-13716790D01*
X9289487Y-13716790D02*
X9308534Y-13716790D01*
X9375201Y-13850124D02*
X9375201Y-13716790D01*
X9375201Y-13650124D02*
X9365677Y-13659648D01*
X9365677Y-13659648D02*
X9375201Y-13669171D01*
X9375201Y-13669171D02*
X9384725Y-13659648D01*
X9384725Y-13659648D02*
X9375201Y-13650124D01*
X9375201Y-13650124D02*
X9375201Y-13669171D01*
X9499010Y-13850124D02*
X9479963Y-13840600D01*
X9479963Y-13840600D02*
X9470439Y-13821552D01*
X9470439Y-13821552D02*
X9470439Y-13650124D01*
X9603772Y-13850124D02*
X9584725Y-13840600D01*
X9584725Y-13840600D02*
X9575201Y-13821552D01*
X9575201Y-13821552D02*
X9575201Y-13650124D01*
X9832344Y-13850124D02*
X9832344Y-13650124D01*
X9832344Y-13650124D02*
X9899010Y-13792981D01*
X9899010Y-13792981D02*
X9965677Y-13650124D01*
X9965677Y-13650124D02*
X9965677Y-13850124D01*
X10146629Y-13850124D02*
X10146629Y-13745362D01*
X10146629Y-13745362D02*
X10137106Y-13726314D01*
X10137106Y-13726314D02*
X10118058Y-13716790D01*
X10118058Y-13716790D02*
X10079963Y-13716790D01*
X10079963Y-13716790D02*
X10060915Y-13726314D01*
X10146629Y-13840600D02*
X10127582Y-13850124D01*
X10127582Y-13850124D02*
X10079963Y-13850124D01*
X10079963Y-13850124D02*
X10060915Y-13840600D01*
X10060915Y-13840600D02*
X10051391Y-13821552D01*
X10051391Y-13821552D02*
X10051391Y-13802505D01*
X10051391Y-13802505D02*
X10060915Y-13783457D01*
X10060915Y-13783457D02*
X10079963Y-13773933D01*
X10079963Y-13773933D02*
X10127582Y-13773933D01*
X10127582Y-13773933D02*
X10146629Y-13764409D01*
X10241868Y-13716790D02*
X10241868Y-13916790D01*
X10241868Y-13726314D02*
X10260915Y-13716790D01*
X10260915Y-13716790D02*
X10299010Y-13716790D01*
X10299010Y-13716790D02*
X10318058Y-13726314D01*
X10318058Y-13726314D02*
X10327582Y-13735838D01*
X10327582Y-13735838D02*
X10337106Y-13754886D01*
X10337106Y-13754886D02*
X10337106Y-13812028D01*
X10337106Y-13812028D02*
X10327582Y-13831076D01*
X10327582Y-13831076D02*
X10318058Y-13840600D01*
X10318058Y-13840600D02*
X10299010Y-13850124D01*
X10299010Y-13850124D02*
X10260915Y-13850124D01*
X10260915Y-13850124D02*
X10241868Y-13840600D01*
X10422820Y-13831076D02*
X10432344Y-13840600D01*
X10432344Y-13840600D02*
X10422820Y-13850124D01*
X10422820Y-13850124D02*
X10413296Y-13840600D01*
X10413296Y-13840600D02*
X10422820Y-13831076D01*
X10422820Y-13831076D02*
X10422820Y-13850124D01*
X10422820Y-13726314D02*
X10432344Y-13735838D01*
X10432344Y-13735838D02*
X10422820Y-13745362D01*
X10422820Y-13745362D02*
X10413296Y-13735838D01*
X10413296Y-13735838D02*
X10422820Y-13726314D01*
X10422820Y-13726314D02*
X10422820Y-13745362D01*
D12*
X8605615Y-14086140D02*
X8790615Y-14271140D01*
X8790615Y-14086140D02*
X8605615Y-14271140D01*
D11*
X9156153Y-14270124D02*
X9041868Y-14270124D01*
X9099010Y-14270124D02*
X9099010Y-14070124D01*
X9099010Y-14070124D02*
X9079963Y-14098695D01*
X9079963Y-14098695D02*
X9060915Y-14117743D01*
X9060915Y-14117743D02*
X9041868Y-14127267D01*
X9241868Y-14251076D02*
X9251391Y-14260600D01*
X9251391Y-14260600D02*
X9241868Y-14270124D01*
X9241868Y-14270124D02*
X9232344Y-14260600D01*
X9232344Y-14260600D02*
X9241868Y-14251076D01*
X9241868Y-14251076D02*
X9241868Y-14270124D01*
X9365677Y-14155838D02*
X9346629Y-14146314D01*
X9346629Y-14146314D02*
X9337106Y-14136790D01*
X9337106Y-14136790D02*
X9327582Y-14117743D01*
X9327582Y-14117743D02*
X9327582Y-14108219D01*
X9327582Y-14108219D02*
X9337106Y-14089171D01*
X9337106Y-14089171D02*
X9346629Y-14079648D01*
X9346629Y-14079648D02*
X9365677Y-14070124D01*
X9365677Y-14070124D02*
X9403772Y-14070124D01*
X9403772Y-14070124D02*
X9422820Y-14079648D01*
X9422820Y-14079648D02*
X9432344Y-14089171D01*
X9432344Y-14089171D02*
X9441868Y-14108219D01*
X9441868Y-14108219D02*
X9441868Y-14117743D01*
X9441868Y-14117743D02*
X9432344Y-14136790D01*
X9432344Y-14136790D02*
X9422820Y-14146314D01*
X9422820Y-14146314D02*
X9403772Y-14155838D01*
X9403772Y-14155838D02*
X9365677Y-14155838D01*
X9365677Y-14155838D02*
X9346629Y-14165362D01*
X9346629Y-14165362D02*
X9337106Y-14174886D01*
X9337106Y-14174886D02*
X9327582Y-14193933D01*
X9327582Y-14193933D02*
X9327582Y-14232028D01*
X9327582Y-14232028D02*
X9337106Y-14251076D01*
X9337106Y-14251076D02*
X9346629Y-14260600D01*
X9346629Y-14260600D02*
X9365677Y-14270124D01*
X9365677Y-14270124D02*
X9403772Y-14270124D01*
X9403772Y-14270124D02*
X9422820Y-14260600D01*
X9422820Y-14260600D02*
X9432344Y-14251076D01*
X9432344Y-14251076D02*
X9441868Y-14232028D01*
X9441868Y-14232028D02*
X9441868Y-14193933D01*
X9441868Y-14193933D02*
X9432344Y-14174886D01*
X9432344Y-14174886D02*
X9422820Y-14165362D01*
X9422820Y-14165362D02*
X9403772Y-14155838D01*
X9622820Y-14070124D02*
X9527582Y-14070124D01*
X9527582Y-14070124D02*
X9518058Y-14165362D01*
X9518058Y-14165362D02*
X9527582Y-14155838D01*
X9527582Y-14155838D02*
X9546629Y-14146314D01*
X9546629Y-14146314D02*
X9594249Y-14146314D01*
X9594249Y-14146314D02*
X9613296Y-14155838D01*
X9613296Y-14155838D02*
X9622820Y-14165362D01*
X9622820Y-14165362D02*
X9632344Y-14184409D01*
X9632344Y-14184409D02*
X9632344Y-14232028D01*
X9632344Y-14232028D02*
X9622820Y-14251076D01*
X9622820Y-14251076D02*
X9613296Y-14260600D01*
X9613296Y-14260600D02*
X9594249Y-14270124D01*
X9594249Y-14270124D02*
X9546629Y-14270124D01*
X9546629Y-14270124D02*
X9527582Y-14260600D01*
X9527582Y-14260600D02*
X9518058Y-14251076D01*
X9756153Y-14070124D02*
X9775201Y-14070124D01*
X9775201Y-14070124D02*
X9794249Y-14079648D01*
X9794249Y-14079648D02*
X9803772Y-14089171D01*
X9803772Y-14089171D02*
X9813296Y-14108219D01*
X9813296Y-14108219D02*
X9822820Y-14146314D01*
X9822820Y-14146314D02*
X9822820Y-14193933D01*
X9822820Y-14193933D02*
X9813296Y-14232028D01*
X9813296Y-14232028D02*
X9803772Y-14251076D01*
X9803772Y-14251076D02*
X9794249Y-14260600D01*
X9794249Y-14260600D02*
X9775201Y-14270124D01*
X9775201Y-14270124D02*
X9756153Y-14270124D01*
X9756153Y-14270124D02*
X9737106Y-14260600D01*
X9737106Y-14260600D02*
X9727582Y-14251076D01*
X9727582Y-14251076D02*
X9718058Y-14232028D01*
X9718058Y-14232028D02*
X9708534Y-14193933D01*
X9708534Y-14193933D02*
X9708534Y-14146314D01*
X9708534Y-14146314D02*
X9718058Y-14108219D01*
X9718058Y-14108219D02*
X9727582Y-14089171D01*
X9727582Y-14089171D02*
X9737106Y-14079648D01*
X9737106Y-14079648D02*
X9756153Y-14070124D01*
X9908534Y-14270124D02*
X9908534Y-14136790D01*
X9908534Y-14155838D02*
X9918058Y-14146314D01*
X9918058Y-14146314D02*
X9937106Y-14136790D01*
X9937106Y-14136790D02*
X9965677Y-14136790D01*
X9965677Y-14136790D02*
X9984725Y-14146314D01*
X9984725Y-14146314D02*
X9994249Y-14165362D01*
X9994249Y-14165362D02*
X9994249Y-14270124D01*
X9994249Y-14165362D02*
X10003772Y-14146314D01*
X10003772Y-14146314D02*
X10022820Y-14136790D01*
X10022820Y-14136790D02*
X10051391Y-14136790D01*
X10051391Y-14136790D02*
X10070439Y-14146314D01*
X10070439Y-14146314D02*
X10079963Y-14165362D01*
X10079963Y-14165362D02*
X10079963Y-14270124D01*
X10175201Y-14270124D02*
X10175201Y-14136790D01*
X10175201Y-14155838D02*
X10184725Y-14146314D01*
X10184725Y-14146314D02*
X10203772Y-14136790D01*
X10203772Y-14136790D02*
X10232344Y-14136790D01*
X10232344Y-14136790D02*
X10251391Y-14146314D01*
X10251391Y-14146314D02*
X10260915Y-14165362D01*
X10260915Y-14165362D02*
X10260915Y-14270124D01*
X10260915Y-14165362D02*
X10270439Y-14146314D01*
X10270439Y-14146314D02*
X10289487Y-14136790D01*
X10289487Y-14136790D02*
X10318058Y-14136790D01*
X10318058Y-14136790D02*
X10337106Y-14146314D01*
X10337106Y-14146314D02*
X10346630Y-14165362D01*
X10346630Y-14165362D02*
X10346630Y-14270124D01*
X10737106Y-14060600D02*
X10565677Y-14317743D01*
X10994249Y-14070124D02*
X11013296Y-14070124D01*
X11013296Y-14070124D02*
X11032344Y-14079648D01*
X11032344Y-14079648D02*
X11041868Y-14089171D01*
X11041868Y-14089171D02*
X11051392Y-14108219D01*
X11051392Y-14108219D02*
X11060915Y-14146314D01*
X11060915Y-14146314D02*
X11060915Y-14193933D01*
X11060915Y-14193933D02*
X11051392Y-14232028D01*
X11051392Y-14232028D02*
X11041868Y-14251076D01*
X11041868Y-14251076D02*
X11032344Y-14260600D01*
X11032344Y-14260600D02*
X11013296Y-14270124D01*
X11013296Y-14270124D02*
X10994249Y-14270124D01*
X10994249Y-14270124D02*
X10975201Y-14260600D01*
X10975201Y-14260600D02*
X10965677Y-14251076D01*
X10965677Y-14251076D02*
X10956153Y-14232028D01*
X10956153Y-14232028D02*
X10946630Y-14193933D01*
X10946630Y-14193933D02*
X10946630Y-14146314D01*
X10946630Y-14146314D02*
X10956153Y-14108219D01*
X10956153Y-14108219D02*
X10965677Y-14089171D01*
X10965677Y-14089171D02*
X10975201Y-14079648D01*
X10975201Y-14079648D02*
X10994249Y-14070124D01*
X11146630Y-14251076D02*
X11156153Y-14260600D01*
X11156153Y-14260600D02*
X11146630Y-14270124D01*
X11146630Y-14270124D02*
X11137106Y-14260600D01*
X11137106Y-14260600D02*
X11146630Y-14251076D01*
X11146630Y-14251076D02*
X11146630Y-14270124D01*
X11279963Y-14070124D02*
X11299011Y-14070124D01*
X11299011Y-14070124D02*
X11318058Y-14079648D01*
X11318058Y-14079648D02*
X11327582Y-14089171D01*
X11327582Y-14089171D02*
X11337106Y-14108219D01*
X11337106Y-14108219D02*
X11346630Y-14146314D01*
X11346630Y-14146314D02*
X11346630Y-14193933D01*
X11346630Y-14193933D02*
X11337106Y-14232028D01*
X11337106Y-14232028D02*
X11327582Y-14251076D01*
X11327582Y-14251076D02*
X11318058Y-14260600D01*
X11318058Y-14260600D02*
X11299011Y-14270124D01*
X11299011Y-14270124D02*
X11279963Y-14270124D01*
X11279963Y-14270124D02*
X11260915Y-14260600D01*
X11260915Y-14260600D02*
X11251391Y-14251076D01*
X11251391Y-14251076D02*
X11241868Y-14232028D01*
X11241868Y-14232028D02*
X11232344Y-14193933D01*
X11232344Y-14193933D02*
X11232344Y-14146314D01*
X11232344Y-14146314D02*
X11241868Y-14108219D01*
X11241868Y-14108219D02*
X11251391Y-14089171D01*
X11251391Y-14089171D02*
X11260915Y-14079648D01*
X11260915Y-14079648D02*
X11279963Y-14070124D01*
X11413296Y-14070124D02*
X11546630Y-14070124D01*
X11546630Y-14070124D02*
X11460915Y-14270124D01*
X11613296Y-14089171D02*
X11622820Y-14079648D01*
X11622820Y-14079648D02*
X11641868Y-14070124D01*
X11641868Y-14070124D02*
X11689487Y-14070124D01*
X11689487Y-14070124D02*
X11708534Y-14079648D01*
X11708534Y-14079648D02*
X11718058Y-14089171D01*
X11718058Y-14089171D02*
X11727582Y-14108219D01*
X11727582Y-14108219D02*
X11727582Y-14127267D01*
X11727582Y-14127267D02*
X11718058Y-14155838D01*
X11718058Y-14155838D02*
X11603772Y-14270124D01*
X11603772Y-14270124D02*
X11727582Y-14270124D01*
X11841868Y-14155838D02*
X11822820Y-14146314D01*
X11822820Y-14146314D02*
X11813296Y-14136790D01*
X11813296Y-14136790D02*
X11803772Y-14117743D01*
X11803772Y-14117743D02*
X11803772Y-14108219D01*
X11803772Y-14108219D02*
X11813296Y-14089171D01*
X11813296Y-14089171D02*
X11822820Y-14079648D01*
X11822820Y-14079648D02*
X11841868Y-14070124D01*
X11841868Y-14070124D02*
X11879963Y-14070124D01*
X11879963Y-14070124D02*
X11899011Y-14079648D01*
X11899011Y-14079648D02*
X11908534Y-14089171D01*
X11908534Y-14089171D02*
X11918058Y-14108219D01*
X11918058Y-14108219D02*
X11918058Y-14117743D01*
X11918058Y-14117743D02*
X11908534Y-14136790D01*
X11908534Y-14136790D02*
X11899011Y-14146314D01*
X11899011Y-14146314D02*
X11879963Y-14155838D01*
X11879963Y-14155838D02*
X11841868Y-14155838D01*
X11841868Y-14155838D02*
X11822820Y-14165362D01*
X11822820Y-14165362D02*
X11813296Y-14174886D01*
X11813296Y-14174886D02*
X11803772Y-14193933D01*
X11803772Y-14193933D02*
X11803772Y-14232028D01*
X11803772Y-14232028D02*
X11813296Y-14251076D01*
X11813296Y-14251076D02*
X11822820Y-14260600D01*
X11822820Y-14260600D02*
X11841868Y-14270124D01*
X11841868Y-14270124D02*
X11879963Y-14270124D01*
X11879963Y-14270124D02*
X11899011Y-14260600D01*
X11899011Y-14260600D02*
X11908534Y-14251076D01*
X11908534Y-14251076D02*
X11918058Y-14232028D01*
X11918058Y-14232028D02*
X11918058Y-14193933D01*
X11918058Y-14193933D02*
X11908534Y-14174886D01*
X11908534Y-14174886D02*
X11899011Y-14165362D01*
X11899011Y-14165362D02*
X11879963Y-14155838D01*
X11994249Y-14070124D02*
X11994249Y-14108219D01*
X12070439Y-14070124D02*
X12070439Y-14108219D01*
X12365677Y-14346314D02*
X12356153Y-14336790D01*
X12356153Y-14336790D02*
X12337106Y-14308219D01*
X12337106Y-14308219D02*
X12327582Y-14289171D01*
X12327582Y-14289171D02*
X12318058Y-14260600D01*
X12318058Y-14260600D02*
X12308534Y-14212981D01*
X12308534Y-14212981D02*
X12308534Y-14174886D01*
X12308534Y-14174886D02*
X12318058Y-14127267D01*
X12318058Y-14127267D02*
X12327582Y-14098695D01*
X12327582Y-14098695D02*
X12337106Y-14079648D01*
X12337106Y-14079648D02*
X12356153Y-14051076D01*
X12356153Y-14051076D02*
X12365677Y-14041552D01*
X12432344Y-14089171D02*
X12441868Y-14079648D01*
X12441868Y-14079648D02*
X12460915Y-14070124D01*
X12460915Y-14070124D02*
X12508534Y-14070124D01*
X12508534Y-14070124D02*
X12527582Y-14079648D01*
X12527582Y-14079648D02*
X12537106Y-14089171D01*
X12537106Y-14089171D02*
X12546630Y-14108219D01*
X12546630Y-14108219D02*
X12546630Y-14127267D01*
X12546630Y-14127267D02*
X12537106Y-14155838D01*
X12537106Y-14155838D02*
X12422820Y-14270124D01*
X12422820Y-14270124D02*
X12546630Y-14270124D01*
X12784725Y-14270124D02*
X12784725Y-14070124D01*
X12870439Y-14270124D02*
X12870439Y-14165362D01*
X12870439Y-14165362D02*
X12860915Y-14146314D01*
X12860915Y-14146314D02*
X12841868Y-14136790D01*
X12841868Y-14136790D02*
X12813296Y-14136790D01*
X12813296Y-14136790D02*
X12794249Y-14146314D01*
X12794249Y-14146314D02*
X12784725Y-14155838D01*
X12994249Y-14270124D02*
X12975201Y-14260600D01*
X12975201Y-14260600D02*
X12965677Y-14251076D01*
X12965677Y-14251076D02*
X12956154Y-14232028D01*
X12956154Y-14232028D02*
X12956154Y-14174886D01*
X12956154Y-14174886D02*
X12965677Y-14155838D01*
X12965677Y-14155838D02*
X12975201Y-14146314D01*
X12975201Y-14146314D02*
X12994249Y-14136790D01*
X12994249Y-14136790D02*
X13022820Y-14136790D01*
X13022820Y-14136790D02*
X13041868Y-14146314D01*
X13041868Y-14146314D02*
X13051392Y-14155838D01*
X13051392Y-14155838D02*
X13060915Y-14174886D01*
X13060915Y-14174886D02*
X13060915Y-14232028D01*
X13060915Y-14232028D02*
X13051392Y-14251076D01*
X13051392Y-14251076D02*
X13041868Y-14260600D01*
X13041868Y-14260600D02*
X13022820Y-14270124D01*
X13022820Y-14270124D02*
X12994249Y-14270124D01*
X13175201Y-14270124D02*
X13156154Y-14260600D01*
X13156154Y-14260600D02*
X13146630Y-14241552D01*
X13146630Y-14241552D02*
X13146630Y-14070124D01*
X13327582Y-14260600D02*
X13308535Y-14270124D01*
X13308535Y-14270124D02*
X13270439Y-14270124D01*
X13270439Y-14270124D02*
X13251392Y-14260600D01*
X13251392Y-14260600D02*
X13241868Y-14241552D01*
X13241868Y-14241552D02*
X13241868Y-14165362D01*
X13241868Y-14165362D02*
X13251392Y-14146314D01*
X13251392Y-14146314D02*
X13270439Y-14136790D01*
X13270439Y-14136790D02*
X13308535Y-14136790D01*
X13308535Y-14136790D02*
X13327582Y-14146314D01*
X13327582Y-14146314D02*
X13337106Y-14165362D01*
X13337106Y-14165362D02*
X13337106Y-14184409D01*
X13337106Y-14184409D02*
X13241868Y-14203457D01*
X13413296Y-14260600D02*
X13432344Y-14270124D01*
X13432344Y-14270124D02*
X13470439Y-14270124D01*
X13470439Y-14270124D02*
X13489487Y-14260600D01*
X13489487Y-14260600D02*
X13499011Y-14241552D01*
X13499011Y-14241552D02*
X13499011Y-14232028D01*
X13499011Y-14232028D02*
X13489487Y-14212981D01*
X13489487Y-14212981D02*
X13470439Y-14203457D01*
X13470439Y-14203457D02*
X13441868Y-14203457D01*
X13441868Y-14203457D02*
X13422820Y-14193933D01*
X13422820Y-14193933D02*
X13413296Y-14174886D01*
X13413296Y-14174886D02*
X13413296Y-14165362D01*
X13413296Y-14165362D02*
X13422820Y-14146314D01*
X13422820Y-14146314D02*
X13441868Y-14136790D01*
X13441868Y-14136790D02*
X13470439Y-14136790D01*
X13470439Y-14136790D02*
X13489487Y-14146314D01*
X13565677Y-14346314D02*
X13575201Y-14336790D01*
X13575201Y-14336790D02*
X13594249Y-14308219D01*
X13594249Y-14308219D02*
X13603773Y-14289171D01*
X13603773Y-14289171D02*
X13613296Y-14260600D01*
X13613296Y-14260600D02*
X13622820Y-14212981D01*
X13622820Y-14212981D02*
X13622820Y-14174886D01*
X13622820Y-14174886D02*
X13613296Y-14127267D01*
X13613296Y-14127267D02*
X13603773Y-14098695D01*
X13603773Y-14098695D02*
X13594249Y-14079648D01*
X13594249Y-14079648D02*
X13575201Y-14051076D01*
X13575201Y-14051076D02*
X13565677Y-14041552D01*
X13927582Y-14346314D02*
X13918058Y-14336790D01*
X13918058Y-14336790D02*
X13899011Y-14308219D01*
X13899011Y-14308219D02*
X13889487Y-14289171D01*
X13889487Y-14289171D02*
X13879963Y-14260600D01*
X13879963Y-14260600D02*
X13870439Y-14212981D01*
X13870439Y-14212981D02*
X13870439Y-14174886D01*
X13870439Y-14174886D02*
X13879963Y-14127267D01*
X13879963Y-14127267D02*
X13889487Y-14098695D01*
X13889487Y-14098695D02*
X13899011Y-14079648D01*
X13899011Y-14079648D02*
X13918058Y-14051076D01*
X13918058Y-14051076D02*
X13927582Y-14041552D01*
X14003773Y-14136790D02*
X14003773Y-14270124D01*
X14003773Y-14155838D02*
X14013296Y-14146314D01*
X14013296Y-14146314D02*
X14032344Y-14136790D01*
X14032344Y-14136790D02*
X14060916Y-14136790D01*
X14060916Y-14136790D02*
X14079963Y-14146314D01*
X14079963Y-14146314D02*
X14089487Y-14165362D01*
X14089487Y-14165362D02*
X14089487Y-14270124D01*
X14213296Y-14270124D02*
X14194249Y-14260600D01*
X14194249Y-14260600D02*
X14184725Y-14251076D01*
X14184725Y-14251076D02*
X14175201Y-14232028D01*
X14175201Y-14232028D02*
X14175201Y-14174886D01*
X14175201Y-14174886D02*
X14184725Y-14155838D01*
X14184725Y-14155838D02*
X14194249Y-14146314D01*
X14194249Y-14146314D02*
X14213296Y-14136790D01*
X14213296Y-14136790D02*
X14241868Y-14136790D01*
X14241868Y-14136790D02*
X14260916Y-14146314D01*
X14260916Y-14146314D02*
X14270439Y-14155838D01*
X14270439Y-14155838D02*
X14279963Y-14174886D01*
X14279963Y-14174886D02*
X14279963Y-14232028D01*
X14279963Y-14232028D02*
X14270439Y-14251076D01*
X14270439Y-14251076D02*
X14260916Y-14260600D01*
X14260916Y-14260600D02*
X14241868Y-14270124D01*
X14241868Y-14270124D02*
X14213296Y-14270124D01*
X14337106Y-14136790D02*
X14413296Y-14136790D01*
X14365677Y-14070124D02*
X14365677Y-14241552D01*
X14365677Y-14241552D02*
X14375201Y-14260600D01*
X14375201Y-14260600D02*
X14394249Y-14270124D01*
X14394249Y-14270124D02*
X14413296Y-14270124D01*
X14632344Y-14136790D02*
X14632344Y-14336790D01*
X14632344Y-14146314D02*
X14651392Y-14136790D01*
X14651392Y-14136790D02*
X14689487Y-14136790D01*
X14689487Y-14136790D02*
X14708535Y-14146314D01*
X14708535Y-14146314D02*
X14718058Y-14155838D01*
X14718058Y-14155838D02*
X14727582Y-14174886D01*
X14727582Y-14174886D02*
X14727582Y-14232028D01*
X14727582Y-14232028D02*
X14718058Y-14251076D01*
X14718058Y-14251076D02*
X14708535Y-14260600D01*
X14708535Y-14260600D02*
X14689487Y-14270124D01*
X14689487Y-14270124D02*
X14651392Y-14270124D01*
X14651392Y-14270124D02*
X14632344Y-14260600D01*
X14841868Y-14270124D02*
X14822820Y-14260600D01*
X14822820Y-14260600D02*
X14813297Y-14241552D01*
X14813297Y-14241552D02*
X14813297Y-14070124D01*
X15003773Y-14270124D02*
X15003773Y-14165362D01*
X15003773Y-14165362D02*
X14994249Y-14146314D01*
X14994249Y-14146314D02*
X14975201Y-14136790D01*
X14975201Y-14136790D02*
X14937106Y-14136790D01*
X14937106Y-14136790D02*
X14918058Y-14146314D01*
X15003773Y-14260600D02*
X14984725Y-14270124D01*
X14984725Y-14270124D02*
X14937106Y-14270124D01*
X14937106Y-14270124D02*
X14918058Y-14260600D01*
X14918058Y-14260600D02*
X14908535Y-14241552D01*
X14908535Y-14241552D02*
X14908535Y-14222505D01*
X14908535Y-14222505D02*
X14918058Y-14203457D01*
X14918058Y-14203457D02*
X14937106Y-14193933D01*
X14937106Y-14193933D02*
X14984725Y-14193933D01*
X14984725Y-14193933D02*
X15003773Y-14184409D01*
X15070439Y-14136790D02*
X15146630Y-14136790D01*
X15099011Y-14070124D02*
X15099011Y-14241552D01*
X15099011Y-14241552D02*
X15108535Y-14260600D01*
X15108535Y-14260600D02*
X15127582Y-14270124D01*
X15127582Y-14270124D02*
X15146630Y-14270124D01*
X15289487Y-14260600D02*
X15270439Y-14270124D01*
X15270439Y-14270124D02*
X15232344Y-14270124D01*
X15232344Y-14270124D02*
X15213297Y-14260600D01*
X15213297Y-14260600D02*
X15203773Y-14241552D01*
X15203773Y-14241552D02*
X15203773Y-14165362D01*
X15203773Y-14165362D02*
X15213297Y-14146314D01*
X15213297Y-14146314D02*
X15232344Y-14136790D01*
X15232344Y-14136790D02*
X15270439Y-14136790D01*
X15270439Y-14136790D02*
X15289487Y-14146314D01*
X15289487Y-14146314D02*
X15299011Y-14165362D01*
X15299011Y-14165362D02*
X15299011Y-14184409D01*
X15299011Y-14184409D02*
X15203773Y-14203457D01*
X15470439Y-14270124D02*
X15470439Y-14070124D01*
X15470439Y-14260600D02*
X15451392Y-14270124D01*
X15451392Y-14270124D02*
X15413297Y-14270124D01*
X15413297Y-14270124D02*
X15394249Y-14260600D01*
X15394249Y-14260600D02*
X15384725Y-14251076D01*
X15384725Y-14251076D02*
X15375201Y-14232028D01*
X15375201Y-14232028D02*
X15375201Y-14174886D01*
X15375201Y-14174886D02*
X15384725Y-14155838D01*
X15384725Y-14155838D02*
X15394249Y-14146314D01*
X15394249Y-14146314D02*
X15413297Y-14136790D01*
X15413297Y-14136790D02*
X15451392Y-14136790D01*
X15451392Y-14136790D02*
X15470439Y-14146314D01*
X15546630Y-14346314D02*
X15556154Y-14336790D01*
X15556154Y-14336790D02*
X15575201Y-14308219D01*
X15575201Y-14308219D02*
X15584725Y-14289171D01*
X15584725Y-14289171D02*
X15594249Y-14260600D01*
X15594249Y-14260600D02*
X15603773Y-14212981D01*
X15603773Y-14212981D02*
X15603773Y-14174886D01*
X15603773Y-14174886D02*
X15594249Y-14127267D01*
X15594249Y-14127267D02*
X15584725Y-14098695D01*
X15584725Y-14098695D02*
X15575201Y-14079648D01*
X15575201Y-14079648D02*
X15556154Y-14051076D01*
X15556154Y-14051076D02*
X15546630Y-14041552D01*
X8790615Y-14483640D02*
G75*
G02*
X8590615Y-14483640I-100000J0D01*
G01*
X8590615Y-14483640D02*
G75*
G02*
X8790615Y-14483640I100000J0D01*
G01*
X9041868Y-14394171D02*
X9051391Y-14384648D01*
X9051391Y-14384648D02*
X9070439Y-14375124D01*
X9070439Y-14375124D02*
X9118058Y-14375124D01*
X9118058Y-14375124D02*
X9137106Y-14384648D01*
X9137106Y-14384648D02*
X9146629Y-14394171D01*
X9146629Y-14394171D02*
X9156153Y-14413219D01*
X9156153Y-14413219D02*
X9156153Y-14432267D01*
X9156153Y-14432267D02*
X9146629Y-14460838D01*
X9146629Y-14460838D02*
X9032344Y-14575124D01*
X9032344Y-14575124D02*
X9156153Y-14575124D01*
X9241868Y-14556076D02*
X9251391Y-14565600D01*
X9251391Y-14565600D02*
X9241868Y-14575124D01*
X9241868Y-14575124D02*
X9232344Y-14565600D01*
X9232344Y-14565600D02*
X9241868Y-14556076D01*
X9241868Y-14556076D02*
X9241868Y-14575124D01*
X9327582Y-14394171D02*
X9337106Y-14384648D01*
X9337106Y-14384648D02*
X9356153Y-14375124D01*
X9356153Y-14375124D02*
X9403772Y-14375124D01*
X9403772Y-14375124D02*
X9422820Y-14384648D01*
X9422820Y-14384648D02*
X9432344Y-14394171D01*
X9432344Y-14394171D02*
X9441868Y-14413219D01*
X9441868Y-14413219D02*
X9441868Y-14432267D01*
X9441868Y-14432267D02*
X9432344Y-14460838D01*
X9432344Y-14460838D02*
X9318058Y-14575124D01*
X9318058Y-14575124D02*
X9441868Y-14575124D01*
X9565677Y-14375124D02*
X9584725Y-14375124D01*
X9584725Y-14375124D02*
X9603772Y-14384648D01*
X9603772Y-14384648D02*
X9613296Y-14394171D01*
X9613296Y-14394171D02*
X9622820Y-14413219D01*
X9622820Y-14413219D02*
X9632344Y-14451314D01*
X9632344Y-14451314D02*
X9632344Y-14498933D01*
X9632344Y-14498933D02*
X9622820Y-14537028D01*
X9622820Y-14537028D02*
X9613296Y-14556076D01*
X9613296Y-14556076D02*
X9603772Y-14565600D01*
X9603772Y-14565600D02*
X9584725Y-14575124D01*
X9584725Y-14575124D02*
X9565677Y-14575124D01*
X9565677Y-14575124D02*
X9546629Y-14565600D01*
X9546629Y-14565600D02*
X9537106Y-14556076D01*
X9537106Y-14556076D02*
X9527582Y-14537028D01*
X9527582Y-14537028D02*
X9518058Y-14498933D01*
X9518058Y-14498933D02*
X9518058Y-14451314D01*
X9518058Y-14451314D02*
X9527582Y-14413219D01*
X9527582Y-14413219D02*
X9537106Y-14394171D01*
X9537106Y-14394171D02*
X9546629Y-14384648D01*
X9546629Y-14384648D02*
X9565677Y-14375124D01*
X9756153Y-14375124D02*
X9775201Y-14375124D01*
X9775201Y-14375124D02*
X9794249Y-14384648D01*
X9794249Y-14384648D02*
X9803772Y-14394171D01*
X9803772Y-14394171D02*
X9813296Y-14413219D01*
X9813296Y-14413219D02*
X9822820Y-14451314D01*
X9822820Y-14451314D02*
X9822820Y-14498933D01*
X9822820Y-14498933D02*
X9813296Y-14537028D01*
X9813296Y-14537028D02*
X9803772Y-14556076D01*
X9803772Y-14556076D02*
X9794249Y-14565600D01*
X9794249Y-14565600D02*
X9775201Y-14575124D01*
X9775201Y-14575124D02*
X9756153Y-14575124D01*
X9756153Y-14575124D02*
X9737106Y-14565600D01*
X9737106Y-14565600D02*
X9727582Y-14556076D01*
X9727582Y-14556076D02*
X9718058Y-14537028D01*
X9718058Y-14537028D02*
X9708534Y-14498933D01*
X9708534Y-14498933D02*
X9708534Y-14451314D01*
X9708534Y-14451314D02*
X9718058Y-14413219D01*
X9718058Y-14413219D02*
X9727582Y-14394171D01*
X9727582Y-14394171D02*
X9737106Y-14384648D01*
X9737106Y-14384648D02*
X9756153Y-14375124D01*
X9908534Y-14575124D02*
X9908534Y-14441790D01*
X9908534Y-14460838D02*
X9918058Y-14451314D01*
X9918058Y-14451314D02*
X9937106Y-14441790D01*
X9937106Y-14441790D02*
X9965677Y-14441790D01*
X9965677Y-14441790D02*
X9984725Y-14451314D01*
X9984725Y-14451314D02*
X9994249Y-14470362D01*
X9994249Y-14470362D02*
X9994249Y-14575124D01*
X9994249Y-14470362D02*
X10003772Y-14451314D01*
X10003772Y-14451314D02*
X10022820Y-14441790D01*
X10022820Y-14441790D02*
X10051391Y-14441790D01*
X10051391Y-14441790D02*
X10070439Y-14451314D01*
X10070439Y-14451314D02*
X10079963Y-14470362D01*
X10079963Y-14470362D02*
X10079963Y-14575124D01*
X10175201Y-14575124D02*
X10175201Y-14441790D01*
X10175201Y-14460838D02*
X10184725Y-14451314D01*
X10184725Y-14451314D02*
X10203772Y-14441790D01*
X10203772Y-14441790D02*
X10232344Y-14441790D01*
X10232344Y-14441790D02*
X10251391Y-14451314D01*
X10251391Y-14451314D02*
X10260915Y-14470362D01*
X10260915Y-14470362D02*
X10260915Y-14575124D01*
X10260915Y-14470362D02*
X10270439Y-14451314D01*
X10270439Y-14451314D02*
X10289487Y-14441790D01*
X10289487Y-14441790D02*
X10318058Y-14441790D01*
X10318058Y-14441790D02*
X10337106Y-14451314D01*
X10337106Y-14451314D02*
X10346630Y-14470362D01*
X10346630Y-14470362D02*
X10346630Y-14575124D01*
X10737106Y-14365600D02*
X10565677Y-14622743D01*
X10994249Y-14375124D02*
X11013296Y-14375124D01*
X11013296Y-14375124D02*
X11032344Y-14384648D01*
X11032344Y-14384648D02*
X11041868Y-14394171D01*
X11041868Y-14394171D02*
X11051392Y-14413219D01*
X11051392Y-14413219D02*
X11060915Y-14451314D01*
X11060915Y-14451314D02*
X11060915Y-14498933D01*
X11060915Y-14498933D02*
X11051392Y-14537028D01*
X11051392Y-14537028D02*
X11041868Y-14556076D01*
X11041868Y-14556076D02*
X11032344Y-14565600D01*
X11032344Y-14565600D02*
X11013296Y-14575124D01*
X11013296Y-14575124D02*
X10994249Y-14575124D01*
X10994249Y-14575124D02*
X10975201Y-14565600D01*
X10975201Y-14565600D02*
X10965677Y-14556076D01*
X10965677Y-14556076D02*
X10956153Y-14537028D01*
X10956153Y-14537028D02*
X10946630Y-14498933D01*
X10946630Y-14498933D02*
X10946630Y-14451314D01*
X10946630Y-14451314D02*
X10956153Y-14413219D01*
X10956153Y-14413219D02*
X10965677Y-14394171D01*
X10965677Y-14394171D02*
X10975201Y-14384648D01*
X10975201Y-14384648D02*
X10994249Y-14375124D01*
X11146630Y-14556076D02*
X11156153Y-14565600D01*
X11156153Y-14565600D02*
X11146630Y-14575124D01*
X11146630Y-14575124D02*
X11137106Y-14565600D01*
X11137106Y-14565600D02*
X11146630Y-14556076D01*
X11146630Y-14556076D02*
X11146630Y-14575124D01*
X11279963Y-14375124D02*
X11299011Y-14375124D01*
X11299011Y-14375124D02*
X11318058Y-14384648D01*
X11318058Y-14384648D02*
X11327582Y-14394171D01*
X11327582Y-14394171D02*
X11337106Y-14413219D01*
X11337106Y-14413219D02*
X11346630Y-14451314D01*
X11346630Y-14451314D02*
X11346630Y-14498933D01*
X11346630Y-14498933D02*
X11337106Y-14537028D01*
X11337106Y-14537028D02*
X11327582Y-14556076D01*
X11327582Y-14556076D02*
X11318058Y-14565600D01*
X11318058Y-14565600D02*
X11299011Y-14575124D01*
X11299011Y-14575124D02*
X11279963Y-14575124D01*
X11279963Y-14575124D02*
X11260915Y-14565600D01*
X11260915Y-14565600D02*
X11251391Y-14556076D01*
X11251391Y-14556076D02*
X11241868Y-14537028D01*
X11241868Y-14537028D02*
X11232344Y-14498933D01*
X11232344Y-14498933D02*
X11232344Y-14451314D01*
X11232344Y-14451314D02*
X11241868Y-14413219D01*
X11241868Y-14413219D02*
X11251391Y-14394171D01*
X11251391Y-14394171D02*
X11260915Y-14384648D01*
X11260915Y-14384648D02*
X11279963Y-14375124D01*
X11460915Y-14460838D02*
X11441868Y-14451314D01*
X11441868Y-14451314D02*
X11432344Y-14441790D01*
X11432344Y-14441790D02*
X11422820Y-14422743D01*
X11422820Y-14422743D02*
X11422820Y-14413219D01*
X11422820Y-14413219D02*
X11432344Y-14394171D01*
X11432344Y-14394171D02*
X11441868Y-14384648D01*
X11441868Y-14384648D02*
X11460915Y-14375124D01*
X11460915Y-14375124D02*
X11499011Y-14375124D01*
X11499011Y-14375124D02*
X11518058Y-14384648D01*
X11518058Y-14384648D02*
X11527582Y-14394171D01*
X11527582Y-14394171D02*
X11537106Y-14413219D01*
X11537106Y-14413219D02*
X11537106Y-14422743D01*
X11537106Y-14422743D02*
X11527582Y-14441790D01*
X11527582Y-14441790D02*
X11518058Y-14451314D01*
X11518058Y-14451314D02*
X11499011Y-14460838D01*
X11499011Y-14460838D02*
X11460915Y-14460838D01*
X11460915Y-14460838D02*
X11441868Y-14470362D01*
X11441868Y-14470362D02*
X11432344Y-14479886D01*
X11432344Y-14479886D02*
X11422820Y-14498933D01*
X11422820Y-14498933D02*
X11422820Y-14537028D01*
X11422820Y-14537028D02*
X11432344Y-14556076D01*
X11432344Y-14556076D02*
X11441868Y-14565600D01*
X11441868Y-14565600D02*
X11460915Y-14575124D01*
X11460915Y-14575124D02*
X11499011Y-14575124D01*
X11499011Y-14575124D02*
X11518058Y-14565600D01*
X11518058Y-14565600D02*
X11527582Y-14556076D01*
X11527582Y-14556076D02*
X11537106Y-14537028D01*
X11537106Y-14537028D02*
X11537106Y-14498933D01*
X11537106Y-14498933D02*
X11527582Y-14479886D01*
X11527582Y-14479886D02*
X11518058Y-14470362D01*
X11518058Y-14470362D02*
X11499011Y-14460838D01*
X11708534Y-14375124D02*
X11670439Y-14375124D01*
X11670439Y-14375124D02*
X11651391Y-14384648D01*
X11651391Y-14384648D02*
X11641868Y-14394171D01*
X11641868Y-14394171D02*
X11622820Y-14422743D01*
X11622820Y-14422743D02*
X11613296Y-14460838D01*
X11613296Y-14460838D02*
X11613296Y-14537028D01*
X11613296Y-14537028D02*
X11622820Y-14556076D01*
X11622820Y-14556076D02*
X11632344Y-14565600D01*
X11632344Y-14565600D02*
X11651391Y-14575124D01*
X11651391Y-14575124D02*
X11689487Y-14575124D01*
X11689487Y-14575124D02*
X11708534Y-14565600D01*
X11708534Y-14565600D02*
X11718058Y-14556076D01*
X11718058Y-14556076D02*
X11727582Y-14537028D01*
X11727582Y-14537028D02*
X11727582Y-14489409D01*
X11727582Y-14489409D02*
X11718058Y-14470362D01*
X11718058Y-14470362D02*
X11708534Y-14460838D01*
X11708534Y-14460838D02*
X11689487Y-14451314D01*
X11689487Y-14451314D02*
X11651391Y-14451314D01*
X11651391Y-14451314D02*
X11632344Y-14460838D01*
X11632344Y-14460838D02*
X11622820Y-14470362D01*
X11622820Y-14470362D02*
X11613296Y-14489409D01*
X11899011Y-14375124D02*
X11860915Y-14375124D01*
X11860915Y-14375124D02*
X11841868Y-14384648D01*
X11841868Y-14384648D02*
X11832344Y-14394171D01*
X11832344Y-14394171D02*
X11813296Y-14422743D01*
X11813296Y-14422743D02*
X11803772Y-14460838D01*
X11803772Y-14460838D02*
X11803772Y-14537028D01*
X11803772Y-14537028D02*
X11813296Y-14556076D01*
X11813296Y-14556076D02*
X11822820Y-14565600D01*
X11822820Y-14565600D02*
X11841868Y-14575124D01*
X11841868Y-14575124D02*
X11879963Y-14575124D01*
X11879963Y-14575124D02*
X11899011Y-14565600D01*
X11899011Y-14565600D02*
X11908534Y-14556076D01*
X11908534Y-14556076D02*
X11918058Y-14537028D01*
X11918058Y-14537028D02*
X11918058Y-14489409D01*
X11918058Y-14489409D02*
X11908534Y-14470362D01*
X11908534Y-14470362D02*
X11899011Y-14460838D01*
X11899011Y-14460838D02*
X11879963Y-14451314D01*
X11879963Y-14451314D02*
X11841868Y-14451314D01*
X11841868Y-14451314D02*
X11822820Y-14460838D01*
X11822820Y-14460838D02*
X11813296Y-14470362D01*
X11813296Y-14470362D02*
X11803772Y-14489409D01*
X11994249Y-14375124D02*
X11994249Y-14413219D01*
X12070439Y-14375124D02*
X12070439Y-14413219D01*
X12365677Y-14651314D02*
X12356153Y-14641790D01*
X12356153Y-14641790D02*
X12337106Y-14613219D01*
X12337106Y-14613219D02*
X12327582Y-14594171D01*
X12327582Y-14594171D02*
X12318058Y-14565600D01*
X12318058Y-14565600D02*
X12308534Y-14517981D01*
X12308534Y-14517981D02*
X12308534Y-14479886D01*
X12308534Y-14479886D02*
X12318058Y-14432267D01*
X12318058Y-14432267D02*
X12327582Y-14403695D01*
X12327582Y-14403695D02*
X12337106Y-14384648D01*
X12337106Y-14384648D02*
X12356153Y-14356076D01*
X12356153Y-14356076D02*
X12365677Y-14346552D01*
X12432344Y-14394171D02*
X12441868Y-14384648D01*
X12441868Y-14384648D02*
X12460915Y-14375124D01*
X12460915Y-14375124D02*
X12508534Y-14375124D01*
X12508534Y-14375124D02*
X12527582Y-14384648D01*
X12527582Y-14384648D02*
X12537106Y-14394171D01*
X12537106Y-14394171D02*
X12546630Y-14413219D01*
X12546630Y-14413219D02*
X12546630Y-14432267D01*
X12546630Y-14432267D02*
X12537106Y-14460838D01*
X12537106Y-14460838D02*
X12422820Y-14575124D01*
X12422820Y-14575124D02*
X12546630Y-14575124D01*
X12784725Y-14575124D02*
X12784725Y-14375124D01*
X12870439Y-14575124D02*
X12870439Y-14470362D01*
X12870439Y-14470362D02*
X12860915Y-14451314D01*
X12860915Y-14451314D02*
X12841868Y-14441790D01*
X12841868Y-14441790D02*
X12813296Y-14441790D01*
X12813296Y-14441790D02*
X12794249Y-14451314D01*
X12794249Y-14451314D02*
X12784725Y-14460838D01*
X12994249Y-14575124D02*
X12975201Y-14565600D01*
X12975201Y-14565600D02*
X12965677Y-14556076D01*
X12965677Y-14556076D02*
X12956154Y-14537028D01*
X12956154Y-14537028D02*
X12956154Y-14479886D01*
X12956154Y-14479886D02*
X12965677Y-14460838D01*
X12965677Y-14460838D02*
X12975201Y-14451314D01*
X12975201Y-14451314D02*
X12994249Y-14441790D01*
X12994249Y-14441790D02*
X13022820Y-14441790D01*
X13022820Y-14441790D02*
X13041868Y-14451314D01*
X13041868Y-14451314D02*
X13051392Y-14460838D01*
X13051392Y-14460838D02*
X13060915Y-14479886D01*
X13060915Y-14479886D02*
X13060915Y-14537028D01*
X13060915Y-14537028D02*
X13051392Y-14556076D01*
X13051392Y-14556076D02*
X13041868Y-14565600D01*
X13041868Y-14565600D02*
X13022820Y-14575124D01*
X13022820Y-14575124D02*
X12994249Y-14575124D01*
X13175201Y-14575124D02*
X13156154Y-14565600D01*
X13156154Y-14565600D02*
X13146630Y-14546552D01*
X13146630Y-14546552D02*
X13146630Y-14375124D01*
X13327582Y-14565600D02*
X13308535Y-14575124D01*
X13308535Y-14575124D02*
X13270439Y-14575124D01*
X13270439Y-14575124D02*
X13251392Y-14565600D01*
X13251392Y-14565600D02*
X13241868Y-14546552D01*
X13241868Y-14546552D02*
X13241868Y-14470362D01*
X13241868Y-14470362D02*
X13251392Y-14451314D01*
X13251392Y-14451314D02*
X13270439Y-14441790D01*
X13270439Y-14441790D02*
X13308535Y-14441790D01*
X13308535Y-14441790D02*
X13327582Y-14451314D01*
X13327582Y-14451314D02*
X13337106Y-14470362D01*
X13337106Y-14470362D02*
X13337106Y-14489409D01*
X13337106Y-14489409D02*
X13241868Y-14508457D01*
X13413296Y-14565600D02*
X13432344Y-14575124D01*
X13432344Y-14575124D02*
X13470439Y-14575124D01*
X13470439Y-14575124D02*
X13489487Y-14565600D01*
X13489487Y-14565600D02*
X13499011Y-14546552D01*
X13499011Y-14546552D02*
X13499011Y-14537028D01*
X13499011Y-14537028D02*
X13489487Y-14517981D01*
X13489487Y-14517981D02*
X13470439Y-14508457D01*
X13470439Y-14508457D02*
X13441868Y-14508457D01*
X13441868Y-14508457D02*
X13422820Y-14498933D01*
X13422820Y-14498933D02*
X13413296Y-14479886D01*
X13413296Y-14479886D02*
X13413296Y-14470362D01*
X13413296Y-14470362D02*
X13422820Y-14451314D01*
X13422820Y-14451314D02*
X13441868Y-14441790D01*
X13441868Y-14441790D02*
X13470439Y-14441790D01*
X13470439Y-14441790D02*
X13489487Y-14451314D01*
X13565677Y-14651314D02*
X13575201Y-14641790D01*
X13575201Y-14641790D02*
X13594249Y-14613219D01*
X13594249Y-14613219D02*
X13603773Y-14594171D01*
X13603773Y-14594171D02*
X13613296Y-14565600D01*
X13613296Y-14565600D02*
X13622820Y-14517981D01*
X13622820Y-14517981D02*
X13622820Y-14479886D01*
X13622820Y-14479886D02*
X13613296Y-14432267D01*
X13613296Y-14432267D02*
X13603773Y-14403695D01*
X13603773Y-14403695D02*
X13594249Y-14384648D01*
X13594249Y-14384648D02*
X13575201Y-14356076D01*
X13575201Y-14356076D02*
X13565677Y-14346552D01*
X13927582Y-14651314D02*
X13918058Y-14641790D01*
X13918058Y-14641790D02*
X13899011Y-14613219D01*
X13899011Y-14613219D02*
X13889487Y-14594171D01*
X13889487Y-14594171D02*
X13879963Y-14565600D01*
X13879963Y-14565600D02*
X13870439Y-14517981D01*
X13870439Y-14517981D02*
X13870439Y-14479886D01*
X13870439Y-14479886D02*
X13879963Y-14432267D01*
X13879963Y-14432267D02*
X13889487Y-14403695D01*
X13889487Y-14403695D02*
X13899011Y-14384648D01*
X13899011Y-14384648D02*
X13918058Y-14356076D01*
X13918058Y-14356076D02*
X13927582Y-14346552D01*
X14003773Y-14441790D02*
X14003773Y-14575124D01*
X14003773Y-14460838D02*
X14013296Y-14451314D01*
X14013296Y-14451314D02*
X14032344Y-14441790D01*
X14032344Y-14441790D02*
X14060916Y-14441790D01*
X14060916Y-14441790D02*
X14079963Y-14451314D01*
X14079963Y-14451314D02*
X14089487Y-14470362D01*
X14089487Y-14470362D02*
X14089487Y-14575124D01*
X14213296Y-14575124D02*
X14194249Y-14565600D01*
X14194249Y-14565600D02*
X14184725Y-14556076D01*
X14184725Y-14556076D02*
X14175201Y-14537028D01*
X14175201Y-14537028D02*
X14175201Y-14479886D01*
X14175201Y-14479886D02*
X14184725Y-14460838D01*
X14184725Y-14460838D02*
X14194249Y-14451314D01*
X14194249Y-14451314D02*
X14213296Y-14441790D01*
X14213296Y-14441790D02*
X14241868Y-14441790D01*
X14241868Y-14441790D02*
X14260916Y-14451314D01*
X14260916Y-14451314D02*
X14270439Y-14460838D01*
X14270439Y-14460838D02*
X14279963Y-14479886D01*
X14279963Y-14479886D02*
X14279963Y-14537028D01*
X14279963Y-14537028D02*
X14270439Y-14556076D01*
X14270439Y-14556076D02*
X14260916Y-14565600D01*
X14260916Y-14565600D02*
X14241868Y-14575124D01*
X14241868Y-14575124D02*
X14213296Y-14575124D01*
X14337106Y-14441790D02*
X14413296Y-14441790D01*
X14365677Y-14375124D02*
X14365677Y-14546552D01*
X14365677Y-14546552D02*
X14375201Y-14565600D01*
X14375201Y-14565600D02*
X14394249Y-14575124D01*
X14394249Y-14575124D02*
X14413296Y-14575124D01*
X14632344Y-14441790D02*
X14632344Y-14641790D01*
X14632344Y-14451314D02*
X14651392Y-14441790D01*
X14651392Y-14441790D02*
X14689487Y-14441790D01*
X14689487Y-14441790D02*
X14708535Y-14451314D01*
X14708535Y-14451314D02*
X14718058Y-14460838D01*
X14718058Y-14460838D02*
X14727582Y-14479886D01*
X14727582Y-14479886D02*
X14727582Y-14537028D01*
X14727582Y-14537028D02*
X14718058Y-14556076D01*
X14718058Y-14556076D02*
X14708535Y-14565600D01*
X14708535Y-14565600D02*
X14689487Y-14575124D01*
X14689487Y-14575124D02*
X14651392Y-14575124D01*
X14651392Y-14575124D02*
X14632344Y-14565600D01*
X14841868Y-14575124D02*
X14822820Y-14565600D01*
X14822820Y-14565600D02*
X14813297Y-14546552D01*
X14813297Y-14546552D02*
X14813297Y-14375124D01*
X15003773Y-14575124D02*
X15003773Y-14470362D01*
X15003773Y-14470362D02*
X14994249Y-14451314D01*
X14994249Y-14451314D02*
X14975201Y-14441790D01*
X14975201Y-14441790D02*
X14937106Y-14441790D01*
X14937106Y-14441790D02*
X14918058Y-14451314D01*
X15003773Y-14565600D02*
X14984725Y-14575124D01*
X14984725Y-14575124D02*
X14937106Y-14575124D01*
X14937106Y-14575124D02*
X14918058Y-14565600D01*
X14918058Y-14565600D02*
X14908535Y-14546552D01*
X14908535Y-14546552D02*
X14908535Y-14527505D01*
X14908535Y-14527505D02*
X14918058Y-14508457D01*
X14918058Y-14508457D02*
X14937106Y-14498933D01*
X14937106Y-14498933D02*
X14984725Y-14498933D01*
X14984725Y-14498933D02*
X15003773Y-14489409D01*
X15070439Y-14441790D02*
X15146630Y-14441790D01*
X15099011Y-14375124D02*
X15099011Y-14546552D01*
X15099011Y-14546552D02*
X15108535Y-14565600D01*
X15108535Y-14565600D02*
X15127582Y-14575124D01*
X15127582Y-14575124D02*
X15146630Y-14575124D01*
X15289487Y-14565600D02*
X15270439Y-14575124D01*
X15270439Y-14575124D02*
X15232344Y-14575124D01*
X15232344Y-14575124D02*
X15213297Y-14565600D01*
X15213297Y-14565600D02*
X15203773Y-14546552D01*
X15203773Y-14546552D02*
X15203773Y-14470362D01*
X15203773Y-14470362D02*
X15213297Y-14451314D01*
X15213297Y-14451314D02*
X15232344Y-14441790D01*
X15232344Y-14441790D02*
X15270439Y-14441790D01*
X15270439Y-14441790D02*
X15289487Y-14451314D01*
X15289487Y-14451314D02*
X15299011Y-14470362D01*
X15299011Y-14470362D02*
X15299011Y-14489409D01*
X15299011Y-14489409D02*
X15203773Y-14508457D01*
X15470439Y-14575124D02*
X15470439Y-14375124D01*
X15470439Y-14565600D02*
X15451392Y-14575124D01*
X15451392Y-14575124D02*
X15413297Y-14575124D01*
X15413297Y-14575124D02*
X15394249Y-14565600D01*
X15394249Y-14565600D02*
X15384725Y-14556076D01*
X15384725Y-14556076D02*
X15375201Y-14537028D01*
X15375201Y-14537028D02*
X15375201Y-14479886D01*
X15375201Y-14479886D02*
X15384725Y-14460838D01*
X15384725Y-14460838D02*
X15394249Y-14451314D01*
X15394249Y-14451314D02*
X15413297Y-14441790D01*
X15413297Y-14441790D02*
X15451392Y-14441790D01*
X15451392Y-14441790D02*
X15470439Y-14451314D01*
X15546630Y-14651314D02*
X15556154Y-14641790D01*
X15556154Y-14641790D02*
X15575201Y-14613219D01*
X15575201Y-14613219D02*
X15584725Y-14594171D01*
X15584725Y-14594171D02*
X15594249Y-14565600D01*
X15594249Y-14565600D02*
X15603773Y-14517981D01*
X15603773Y-14517981D02*
X15603773Y-14479886D01*
X15603773Y-14479886D02*
X15594249Y-14432267D01*
X15594249Y-14432267D02*
X15584725Y-14403695D01*
X15584725Y-14403695D02*
X15575201Y-14384648D01*
X15575201Y-14384648D02*
X15556154Y-14356076D01*
X15556154Y-14356076D02*
X15546630Y-14346552D01*
M02*
